<svg xmlns="http://www.w3.org/2000/svg" viewBox="0 0 512 512">
<style>
  .bg { fill: #fafafa; }
  .mark { fill: #6366f1; }
  @media (prefers-color-scheme: dark) {
    .bg { fill: #09090b; }
  }
</style>
<circle class="bg" cx="256" cy="256" r="256"/>
<g class="mark" transform="translate(66,445) scale(0.0542,-0.0542)" stroke="none">
<path d="M1074 6779 c-21 -6 -78 -58 -174 -156 -78 -82 -274 -281 -434 -444
-160 -163 -326 -332 -368 -376 l-78 -80 0 -1116 0 -1116 1006 -1003 c553 -552
1008 -1004 1012 -1006 9 -3 172 331 172 351 0 7 -295 307 -655 666 -360 360
-655 656 -655 658 0 8 71 2 97 -8 15 -6 60 -15 98 -20 39 -5 99 -15 135 -23
l65 -14 600 -601 c330 -331 601 -603 603 -605 4 -4 -9 -93 -33 -236 -9 -52
-19 -108 -21 -125 -6 -37 -27 -159 -50 -288 l-17 -99 559 -559 c307 -307 563
-559 569 -559 5 0 787 777 1737 1728 1378 1377 1730 1734 1738 1762 15 54 12
2116 -3 2157 -8 21 -192 213 -507 530 l-495 498 -803 3 -804 2 -400 -405
c-221 -223 -406 -405 -413 -405 -11 0 -762 758 -830 838 -55 65 -18 62 -857
61 -424 0 -777 -5 -794 -10z m964 -471 c-3 -7 -22 -16 -44 -19 -21 -4 -52 -12
-69 -18 -16 -6 -57 -18 -90 -27 -33 -9 -96 -26 -140 -39 -115 -32 -165 -45
-210 -54 -22 -5 -51 -13 -65 -18 -14 -6 -126 -113 -250 -239 -124 -125 -278
-280 -342 -344 l-118 -116 -2 -728 -3 -727 -25 -14 c-14 -8 -52 -26 -85 -41
-33 -14 -70 -31 -82 -36 -11 -6 -26 -7 -32 -4 -8 5 -11 242 -11 824 l1 817
392 397 392 397 393 1 c311 0 393 -3 390 -12z"/>
</g>
</svg>
