<?xml version="1.0" encoding="UTF-8" standalone="no"?>
<!DOCTYPE svg PUBLIC "-//W3C//DTD SVG 1.1//EN" "http://www.w3.org/Graphics/SVG/1.1/DTD/svg11.dtd">
<svg width="100%" height="100%" viewBox="0 0 1024 1024" version="1.1" xmlns="http://www.w3.org/2000/svg" xmlns:xlink="http://www.w3.org/1999/xlink" xml:space="preserve" xmlns:serif="http://www.serif.com/" style="fill-rule:evenodd;clip-rule:evenodd;stroke-linejoin:round;stroke-miterlimit:2;">
    <g id="Background">
        <path d="M282.36,224.836C287.732,225.791 293.105,226.747 298.477,227.702C306.638,230.109 306.44,230.302 314.426,233.57C336.454,244.343 363.131,268.644 379.103,292.811C382.038,297.252 382.873,296.443 386.447,303.527C402.672,335.694 402.925,335.341 422.626,365.318C424.026,367.609 423.92,367.626 426.581,368.468C428.521,373.998 512.308,513.796 523.96,545.285C525.16,548.457 525.091,548.289 525.886,551.416C528.834,563.024 521.471,557.188 521.141,556.723C520.243,555.46 514.107,546.826 510.806,540.337C509.635,538.035 507.679,534.189 494.103,512.718C473.978,478.888 473.158,479.421 471.715,476.322C470.738,474.69 469.761,473.057 468.784,471.425C463.307,461.074 440.9,418.732 392.464,346.515C357.237,293.05 356.881,293.322 352.233,287.767C350.397,285.696 319.257,245.096 267.6,242.85C267.601,242.865 266.337,244.037 267.738,245.268C277.522,253.865 288.136,236.19 330.436,273.568C351.318,292.966 362.265,322.651 354.163,310.67C342.234,293.027 336.255,288.284 334.306,286.738C300.346,259.799 299.505,260.931 293.351,258.968C245.567,243.734 193.025,282.74 212.231,351.598C215.695,364.02 231.583,398.941 235.992,405.233C245.467,418.758 245.853,418.296 252.99,433.174C254.658,436.652 269.444,467.479 277.427,474.741C277.918,475.188 279.683,474.098 275.008,466.803C258.541,441.101 256.879,441.544 252.101,412.505C252.429,412.274 253.912,413.559 257.112,404.536C256.799,398.814 259.283,399.119 258.357,393.408C259.886,389.81 260.138,389.98 260.48,387.502C261.748,386.13 261.441,386.055 262.716,384.729C266.615,373.7 266.811,373.914 272.375,363.496C273.861,361.5 276.321,358.415 276.67,357.978C275.785,357.345 274.9,356.712 274.016,356.079C272.493,350.077 255.4,372.923 258.509,379.493L258.606,380.429C255.841,385.081 256.778,385.398 253.968,389.937C252.821,391.673 252.908,391.693 251.009,392.506C252.289,362.387 283.792,328.276 315.503,328.106C322.792,328.067 335.781,325.644 341.785,334.042C353.043,341.999 355.277,337.931 366.619,346.342C376.063,353.345 380.467,348.582 393.907,370.248C401.569,382.601 410.224,394.287 411.727,396.317C414.123,399.552 419.03,401.525 423.583,409.469C429.727,420.19 435.615,426.342 433.198,432.574C439.852,445.298 478.073,505.749 498.962,547.262C523.376,595.783 526.98,598.23 529.033,594.266C557.463,539.386 569.412,532.193 621.865,431.694C626.773,422.292 628.964,423.648 687.06,316.262C687.394,315.645 698.839,292.047 703.626,289.733C705.526,288.815 704.999,282.805 705.896,281.804C736.156,248.083 739.359,252.184 740.34,251.305C748.2,244.258 747.492,243.32 753.659,240.811C768.309,234.852 767.555,232.273 783.441,231.053C784.819,230.948 784.538,229.412 800.449,228.052C807.514,227.448 807.304,227.476 814.456,227.027C815.476,226.963 854.009,228.216 879.106,256.843C900.769,281.552 915.095,317.4 907.552,314.347C900.374,311.442 898.971,269.001 856.635,243.364C856.226,243.117 856.259,243.131 851.557,240.209C847.262,237.786 847.741,240.455 847.476,240.691C844.852,239.883 818.969,231.909 814.084,232.73C813.866,232.557 811.107,230.369 810.613,232.542C810.105,234.78 811.198,234.302 813.342,234.135C818.032,234.966 855.753,241.655 869.144,254.882C907.489,292.756 902.753,335.712 902.822,350.498C898.765,357.835 896.318,375.472 895.536,376.537C893.094,383.222 890.628,389.342 890.183,390.448C887.866,396.081 887.876,396.043 887.68,396.532C887.431,397.154 887.695,397.006 887.497,397.501C886.779,399.1 886.879,398.977 886.875,400.705C885.587,403.493 885.544,403.251 885.587,403.493C885.703,404.159 888.42,406.895 891.791,397.753C893.39,393.181 894.413,393.334 893.142,390.365C895.574,383.848 895.83,384.122 898.258,377.429L899.52,375.512C901.103,370.283 902.967,370.051 900.193,366.434C901.742,360.62 899.859,359.557 904.475,356.519C904.848,357.135 905.843,358.781 904.577,365.52C900.187,388.881 902.494,392.437 888.006,424.427C887.929,424.693 887.424,426.431 886.619,427.605C856.029,485.802 860.052,489.351 854.57,490.792C850.068,491.975 851.968,494.543 851.908,495.573C851.741,498.403 848.68,496.431 848.334,498.452C848.123,499.682 847.029,506.056 841.448,512.448C836.014,518.672 837.978,528.262 830.518,526.523C826.6,531.943 827.668,532.389 825.118,536.205C815.713,550.281 816.995,551.005 816.11,552.175C797.465,576.815 801.593,579.197 792.099,592.184C770.358,621.926 773.647,625.073 770.499,625.497C763.617,626.423 762.243,643.425 757.112,649.184C739.407,669.053 745.877,673.942 734.697,682.944C733.908,682.538 733.12,682.132 732.331,681.726C726.964,678.132 735.939,665.644 736.778,661.598C737.57,660.911 738.343,660.239 743.092,650.115C744.235,649.854 751.232,648.252 752.051,638.515C752.818,629.397 769.986,610.767 774.7,597.452C773.262,596.849 772.97,596.718 772.415,598.297C771.301,601.46 745.369,639.58 743.109,643.124C735.023,656.208 734.898,656.085 734.206,657.225C732.323,660.444 730.688,661.444 727.69,667.561C726.616,669.454 726.722,669.425 726.625,669.579C726.623,669.81 726.603,672.146 726.432,672.458C722.099,680.389 724.011,681.484 717.622,687.719C716.831,687.852 716.041,687.986 715.25,688.119C714.742,679.311 723.383,677.893 719.263,676.869C717.936,676.54 717.245,680.754 715.895,677.524C720.27,673.201 719.657,672.889 722.458,667.493C725.993,660.919 732.68,650.02 733.601,648.519C737.195,641.257 731.462,647.931 731.362,648.084C725.414,656.63 725.696,656.572 720.947,665.955C716.422,674.365 715.645,673.881 714.709,673.501C717.469,666.477 717.417,666.556 717.827,665.646L718.859,663.833C720.18,661.414 721.502,658.994 722.823,656.574C723.19,655.923 723.274,655.999 727.654,648.575C728.256,647.696 737.395,634.371 733.491,636.601C732.999,636.881 733.28,637.075 729.502,642.441C729.398,642.589 729.502,642.441 727.24,642.424C739.047,619.185 740.033,619.847 751.688,596.492C750.468,595.343 750.57,595.256 750.468,595.343C750.442,595.366 709.736,658.913 701.126,678.128C700.868,678.415 697.905,681.726 697.905,681.726C691.203,694.435 692.071,694.731 685.274,707.377C682.954,711.694 660.77,752.968 656.957,761.703C650.234,777.105 612.064,817.215 610.657,818.554C610.118,827.194 632.319,797.979 633.889,795.913C680.118,735.082 718.18,735.13 772.626,715.797C786.356,710.922 766.736,672.805 781.813,630.642C789.121,610.206 816.614,583.718 825.242,578.11C831.435,574.085 833.971,567.184 835.221,574.575C841.311,610.592 836.859,633.53 835.884,638.555C826.269,688.102 803.578,683.525 784.735,708.605C784.248,709.845 783.537,711.094 785.505,710.391C826.444,692.687 846.844,669.32 860.9,651.843C881.06,626.777 881.201,625.584 878.76,614.414C860.809,532.277 943.727,494.812 943.828,499.423C943.9,502.68 941.582,548.026 941.488,548.497C928.091,616.112 897.213,609.192 884.93,629.733C880.744,636.735 854.33,680.909 815.182,704.121C809.535,707.469 823.696,707.155 824.477,707.138C831.105,706.99 855.68,663.038 924.551,677.086C972.243,686.815 976.421,687.803 973.177,690.193C906.307,739.442 879.868,732.985 868.489,732.81C839.723,732.367 832.068,715.527 812.53,714.982C782.797,718.184 771.364,726.985 722.574,740.876C709.31,744.652 679.82,755.406 675.604,759.628C673.996,761.238 666.549,764.209 667.562,765.478C667.798,765.774 667.854,765.297 671.935,763.676C674.265,762.751 673.822,764.052 675.733,765.914C646.974,785.24 624.31,841.839 567.533,850.696C564.163,851.222 539.211,861.429 508.615,849.219C474.592,835.642 464.426,810.879 461.885,807.203C438.527,773.415 426.732,738.455 419.356,727.66C409.155,715.066 411.066,713.742 400.265,701.714C401.678,699.097 400.723,698.831 383.193,668.673C369.397,644.938 363.85,640.315 362.891,631.421C362.808,630.656 362.383,630.929 357.633,623.367C356.426,621.446 356.231,623.01 354.65,624.522C354.757,625.602 361.031,638.259 361.616,639.439C363.414,643.067 365.03,642.102 386.939,683.261C388.142,685.521 388.3,685.25 389.756,687.377C389.364,688.23 387.479,688.815 392.387,695.561C399.642,708.566 399.839,708.39 400.466,709.517C407.07,721.38 393.892,707.402 390.288,698.933C387.286,691.999 387.619,692.063 387.313,691.5C369.392,658.504 388.518,699.085 388.816,699.68C386.565,702.982 385.689,701.361 381.883,702.859C381.408,703.154 380.934,703.449 380.46,703.744C379.908,703.736 378.466,703.718 373.676,704.996C372.314,705.36 375.15,710.757 372.447,709.734C369.496,708.618 369.665,708.662 366.51,708.465C363.989,708.307 358.612,688.517 358.123,686.717C352.987,678.699 350.56,674.021 350.293,673.851C344.724,670.295 317.057,619.653 315.324,617.636C308.058,609.179 276.612,556.143 276.244,555.9C271.265,552.611 256.13,516.826 224.9,475.171C200.739,442.944 200.622,433.389 192.029,418.726C177.553,393.719 177.45,393.922 165.86,367.334C151.256,333.831 157.925,267.513 204.328,232.297C252.613,195.652 289.744,203.876 323.327,217.847C375.185,239.422 401.745,299.457 405.707,308.414C401.11,312.337 406.189,315.88 407.645,317.459C408.856,321.058 422.089,341.919 412.572,333.994C411.909,331.004 411.418,331.473 409.222,329.969C408.282,326.757 408.381,326.731 408.207,326.5C406.8,324.628 407.283,324.581 406.307,322.5C401.357,311.953 399.157,313.304 394.539,302.721C399.978,301.83 394.065,299.974 389.917,291.336C384.24,279.515 375.453,268.912 373.973,267.126C364.723,257.776 346.371,234.352 312.322,220.978C238.722,192.066 193.359,253.686 187.107,262.178C174.9,278.76 162.802,314.353 168.949,345.386C169.259,346.951 169.249,346.761 171.262,354.675C178.737,385.75 200.687,406.217 192.069,391.819C189.512,387.547 189.455,387.763 188.142,385.727C187.309,374.252 178.46,364.105 176.832,347.476L174.993,336.407C171.33,259.465 225.09,237.315 239.616,229.774C258.684,223.49 261.433,222.041 282.36,224.836ZM768.509,355.475C767.708,355.437 763.754,355.249 758.509,356.123C756.792,355.708 750.696,354.236 736.427,356.074C730.902,357.509 730.966,357.512 726.423,361.056C722.91,361.924 723.911,363.226 723.294,364.261C722.619,365.391 721.971,364.033 708.451,371.364C707.542,371.283 695.839,370.239 700.372,379.408L698.313,381.08C692.574,379.633 693.357,382.391 692.123,388.295C691.446,388.9 691.595,388.967 685.539,397.541C668.443,416.146 663.927,428.954 647.989,463.93C648.783,472.332 639.128,470.006 641.825,473.27C644.45,476.448 642.307,476.537 640.173,479.21C637.206,482.892 636.504,482.568 636.347,487.407C633.652,491.969 632.914,491.592 632.395,498.491C632.046,503.12 627.549,504.606 628.753,506.363C631.283,510.057 625.158,515.037 624.887,518.539C623.656,534.432 613.633,545.234 613.693,554.532C613.723,559.382 608.832,557.159 604.058,572.483L604.024,574.432C602.191,586.041 595.566,592.556 593.761,599.506C589.943,614.203 600.054,586.606 606.548,583.598L607.436,583.685L608.346,584.503C605.296,596.16 582.854,621.292 591.664,616.781C597.985,613.546 593.914,609.403 605.17,602.125C608.821,599.764 605.089,591.847 611.499,591.563C612.115,591.535 644.047,541.012 648.963,529.714C665.894,490.81 672.811,495.663 674.178,492.324C689.268,455.459 689.491,455.79 690.458,452.486C696.73,431.071 699.699,432.579 711.88,413.747C715.938,407.472 742.133,377.567 766.508,377.85C792.131,378.147 792.547,393.459 794.245,397.43C793.684,397.36 793.122,397.291 792.561,397.221C787.054,390.632 787.764,390.309 787.175,389.881C770.775,377.959 753.48,377.378 731.519,396.52C715.692,410.315 736.077,396.554 736.401,396.335C745.478,390.208 757.066,388.056 760.388,386.282C762.974,384.9 780.405,389.862 783.388,392.641C794.644,403.123 796.403,400.659 797.123,401.765C807.318,417.426 792.186,459.946 792.214,460.497C792.522,466.384 785.83,471.109 772.297,495.349C769.522,498.491 769.88,498.533 768.001,502.174C762.263,508.593 762.304,509.549 754.909,521.809C737.148,551.254 731.83,558.007 729.86,562.681C722.472,580.207 710.083,600.958 705.496,614.498C700.419,629.488 696.483,627.237 692.841,635.67C683.79,656.627 681.71,655.477 672.357,676.436C664.022,688.985 663.352,692.849 663.075,694.446C661.355,704.354 658.207,702.753 653.735,711.62C648.235,722.526 629.798,745.806 629.911,746.471C630.893,752.241 640.32,735.602 642.574,733.691C644.821,731.785 644.55,731.611 667.824,697.987C674.198,688.49 679.6,674.978 680.853,672.707C685.258,664.725 686.128,665.428 690.509,657.505C731.669,583.075 784.043,511.64 752.831,559.635C740.222,579.025 741.087,579.316 728.711,598.625C685.546,665.974 683.943,684.79 644.715,740.594C644.065,741.629 643.415,742.664 642.765,743.699C641.847,744.875 640.929,746.051 640.011,747.227C628.083,759.991 629.019,762.959 629.505,764.502C627.527,768.113 627.595,768.127 627.369,768.402C617.61,780.278 618.745,780.998 617.575,781.598C610.825,785.059 596.939,810.705 578.565,814.241C576.344,809.141 582.75,812.027 593.152,797.227C604.301,781.366 588.486,796.724 588.206,797.004C587.666,796.512 587.127,796.02 586.587,795.528C595.857,781.207 593.568,780.419 593.528,780.416C590.039,780.165 595.095,788.197 558.677,806.825C550.98,810.763 551.248,811.267 542.51,812.455C509.887,807.132 512.391,801.265 505.138,791.977C501.15,786.87 499.985,788.044 496.591,782.491C496.873,781.908 497.155,781.326 497.436,780.743C516.46,799.244 513.738,806.222 538.491,806.975C541.748,807.074 541.593,808.344 544.689,807.647C544.57,806.584 544.824,806.395 543.676,806.286C542.666,806.032 541.657,805.778 540.647,805.524C540.902,805.123 541.157,804.722 541.412,804.322L542.539,804.344C550.817,804.913 550.627,804.55 558.55,802.633C562.816,801.601 562.506,801.126 564.819,798.748C573.353,789.973 551.476,799.854 550.42,800.331C545.643,802.489 534.474,800.404 534.023,804.196C522.145,805.592 505.599,784.431 504.591,783.463C505.341,782.452 505.196,782.509 506.569,782.32C517.157,791.729 532.541,795.224 525.398,790.61C492.935,769.638 495.772,756.865 495.967,732.553L496.887,729.584C497.97,726.434 498.936,726.583 497.834,722.558C499.797,718.117 499.397,718.056 504.178,708.341C506.372,703.882 526.721,662.531 533.738,653.711C534.501,652.752 534.902,653.527 543.338,665.655C549.464,673.808 550.384,679.541 552.101,674.17C552.563,673.961 553.025,673.751 553.486,673.542C555.356,675.772 555.174,675.627 555.356,675.772C564.748,683.22 538.952,645.211 538.961,644.454C539.058,635.917 543.158,644.512 545.418,648.807C546.53,650.499 546.531,650.468 548.592,650.429C550.849,653.232 550.749,653.147 552.977,656.134C559.85,665.349 560.997,664.036 568.381,672.614C573.391,680.574 573.302,680.563 573.792,681.21C574.645,682.337 575.153,681.502 576.069,682.712C578.025,686.535 577.103,687.113 580.728,689.286C585.311,696.121 586.861,695.923 587.615,695.827C589.624,695.571 589.001,694.047 577.109,672.789C565.409,651.876 562.001,654.064 551.801,632.431C551.902,630.767 552.004,629.102 552.105,627.437C553.154,623.884 553.351,624.16 554.982,620.769C560.386,616.444 559.102,615.546 562.976,609.781C565.145,606.07 582.418,576.524 588.593,562.547L588.941,561.723C590.977,556.927 593.013,552.131 595.049,547.334C606.332,522.6 713.644,336.95 728.856,308.683C732.21,302.45 734.661,304.522 738.234,298.35C744.008,288.373 744.3,288.806 752.621,280.624C755.263,278.026 756.203,280.243 759.237,278.132C766.744,272.908 766.488,272.772 774.192,268.098C802.486,250.934 839.641,266.909 850.32,275.722C901.701,318.123 868.888,379.181 868.202,384.496C863.117,406.446 824.748,465.853 822.761,469.707C810.56,493.373 826.523,459.092 828.986,443.752C830.713,439.05 827.771,438.565 829.996,434.64C835.458,425.005 832.813,424.462 832.642,413.44C831.398,411.013 830.955,411.035 828.605,412.382C827.544,408.484 824.975,400.549 824.643,399.525C827.151,399.611 828.035,399.313 826.911,397.07C819.721,388.205 813.999,374.832 809.154,370.893C783.517,350.044 780.632,356.875 768.509,355.475ZM341.393,373.987C355.36,381.619 386.323,440.845 400.342,456.644C400.99,457.374 399.877,457.884 407.321,466.655C410.881,470.849 408.512,472.215 444.12,524.748C453.553,538.665 450.019,540.817 470.308,564.647C473.785,568.732 471.109,570.505 507.894,620.176C512.922,626.964 508.133,627.422 493.024,655.254C491.517,658.03 476.454,685.777 473.907,689.791C465.15,703.59 463.072,719.222 462.5,718.604C462.495,718.599 461.073,714.045 456.921,709.237L456.511,708.494C459.669,704.698 457.723,704.288 454.685,700.419C432.794,663.905 435.947,662.395 428.108,650.809C426.505,648.439 426.568,648.543 424.662,646.378C422.599,644.033 428.113,644.021 426.183,641.739C421.82,636.577 420.716,637.854 416.675,632.375C415.605,630.925 417.348,627.158 411.135,618.815C410.351,617.763 410.193,617.91 401.104,605.837C401.037,605.747 394.845,595.576 392.809,588.409C391.532,584.967 389.281,578.9 368.902,549.235C367.671,547.444 367.374,547.687 352.993,527.209C343.401,513.55 345.524,511.922 343.577,511.13C341.375,510.62 341.439,510.662 339.894,509.076C333.544,496.1 330.903,497.367 327.608,483.463C325.742,475.587 317.803,466.844 315.9,462.42C316.044,454.477 315.903,454.33 310.721,448.314C309.347,446.719 310.605,446.094 299.91,424.323C295.317,414.973 296.776,398.775 296.977,396.549C297.782,387.613 307.953,383.679 309.312,383.154C310.415,383.12 326.629,382.618 322.587,379.397C322.115,379.02 315.168,380.442 314.53,380.573C311.699,381.152 311.81,381.06 309.091,382.342C308.857,381.767 301.134,378.526 308.572,376.928C309.097,376.815 320.692,371.377 334.272,378.936C338.304,381.181 337.228,382.678 341.594,384.253C345.191,385.551 359.533,397.781 352.184,388.822C342.534,377.06 341.703,377.939 337.613,376.342C338.791,374.29 338.915,374.575 341.393,373.987ZM259.492,244.854C264.085,247.113 268.4,248.268 264.461,248.381C225.742,249.489 179.632,301.021 207.846,362.336C229.678,409.784 232.491,408.125 245.214,430.673C246.464,432.888 248.882,443.269 265.977,469.192C286.203,499.863 254.646,463.492 229.169,410.635C219.24,390.034 152.059,307.554 240.149,252.065C241.546,251.185 249.822,245.972 259.492,244.854ZM454.685,700.419C457.723,704.288 459.669,704.698 456.511,708.494C454.508,704.431 453.238,704.626 454.685,700.419ZM497.834,722.558C498.936,726.583 497.97,726.434 496.887,729.584C495.765,727.977 494.032,727.525 497.834,722.558ZM826.911,397.07C828.035,399.313 827.151,399.611 824.643,399.525C824.647,399.516 822.692,397.56 826.911,397.07ZM497.436,780.743C497.155,781.326 496.873,781.908 496.591,782.491C495.851,780.975 495.936,779.892 497.436,780.743ZM543.676,806.286C544.824,806.395 544.57,806.584 544.689,807.647L543.676,806.286Z" style="fill:rgb(102,97,153);"/>
        <path d="M156.932,243.521C155.76,254.879 156.075,254.759 150.21,282.404C149.231,287.015 163.93,311.683 157.483,311.897C153.649,312.025 147.577,287.716 134.676,281.152C80.503,253.59 75.058,211.357 74.05,203.544C70.325,174.648 77.737,153.988 80.271,118.454C80.753,111.693 121.896,150.285 123.88,153.227C127.531,158.645 138.864,165.228 149.236,189.613C161.223,217.794 157.713,231.996 156.932,243.521Z" style="fill:rgb(101,97,152);"/>
        <path d="M172.07,184.488C172.626,179.507 175.428,154.374 200.855,128.847C207.538,122.137 209.907,114.57 213.526,123.489C231.811,168.545 224.963,199.933 191.631,226.656C186.59,230.697 189.229,239.664 185.81,234.174C172.632,213.007 172.152,188.611 172.07,184.488Z" style="fill:rgb(100,96,150);"/>
        <path d="M151.575,341.464C148.699,344.937 146.693,341.908 146.348,341.731C109.182,322.656 104.499,311.376 99.475,310.617C88.091,308.899 111.938,333.846 140.347,342.886C147.075,345.026 145.829,346.378 146.49,347.463C93.178,349.77 83.903,342.74 44.891,287.186C41.346,282.138 45.653,283.105 47.512,283.141C112.881,284.417 132.61,296.886 151.575,341.464Z" style="fill:rgb(99,96,152);"/>
        <path d="M235.436,227.086C219.727,233.203 203.695,248.048 201.271,250.293C163.472,293.239 170.657,331.662 171.697,347.403C172.694,352.051 172.68,352.023 172.773,352.423C172.918,353.048 173.109,352.86 173.259,353.505C172.381,354.194 172.456,354.146 172.381,354.194C171.826,354.546 171.835,354.312 171.262,354.675C169.249,346.761 169.259,346.951 168.949,345.386C162.802,314.353 174.9,278.76 187.107,262.178C193.359,253.686 238.722,192.066 312.322,220.978C346.371,234.352 364.723,257.776 373.973,267.126C373.771,267.978 372.273,268.085 372.072,268.936C372.033,269.097 372.072,268.936 373.695,270.223C373.656,271.762 372.392,271.827 373.614,273.426C373.718,273.562 373.614,273.426 375.535,272.485C377.187,276.074 378.627,276.155 376.52,279.48C372.64,276.113 372.713,276.221 369.105,272.733L370.188,271.08C371.482,267.598 364.872,262.973 360.286,258.933C360.31,258.386 361.298,258.205 361.322,257.657C361.338,257.293 332.983,229.09 313.526,224.824C302.18,222.337 327.489,230.471 335.513,241.443C334.907,241.454 333.941,241.471 328.63,238.284C323.093,234.961 320.621,234.605 318.68,233.142C318.297,229.081 305.466,227.479 303.462,225.539C301.955,224.08 296.913,219.198 278.496,217.548C251.699,215.149 242.997,223.738 235.436,227.086Z" style="fill:rgb(246,245,244);fill-opacity:0.44;"/>
        <path d="M259.492,244.854C264.085,247.113 268.4,248.268 264.461,248.381C225.742,249.489 179.632,301.021 207.846,362.336C229.678,409.784 232.491,408.125 245.214,430.673C246.464,432.888 248.882,443.269 265.977,469.192C286.203,499.863 254.646,463.492 229.169,410.635C219.24,390.034 152.059,307.554 240.149,252.065C241.546,251.185 249.822,245.972 259.492,244.854Z" style="fill:rgb(246,246,245);fill-opacity:0.31;"/>
        <path d="M283.334,221.07C255.403,218.224 238.37,228.016 238.399,228.523C238.432,229.104 239.583,229.194 239.616,229.774C225.09,237.315 171.33,259.465 174.993,336.407C171.288,340.77 173.642,341.331 174.22,345.794C172.793,346.332 172.987,346.249 171.697,347.403C170.657,331.662 163.472,293.239 201.271,250.293C202.101,250.598 202.026,251.997 203.563,250.622C205.796,248.622 219.316,236.518 234.558,229.572C236.117,228.862 234.986,228.36 235.436,227.086C242.997,223.738 251.699,215.149 278.496,217.548C296.913,219.198 301.955,224.08 303.462,225.539C305.466,227.479 318.297,229.081 318.68,233.142C316.261,232.469 315.907,231.379 314.426,233.57C306.44,230.302 306.638,230.109 298.477,227.702C303.226,224.086 296.984,225.036 283.334,221.07Z" style="fill:rgb(176,171,194);fill-opacity:1;"/>
        <path d="M0,571.5L0,536.5C2.518,536.487 12.196,536.436 30.482,528.651C31.155,528.266 31.828,527.881 32.501,527.496C32.773,527.36 44.31,521.604 36.188,528.436C34.298,530.026 18.322,543.466 14.697,550.602C8.832,562.149 9.495,562.601 0,571.5Z" style="fill:rgb(254,254,254);fill-opacity:0.58;"/>
        <path d="M122.55,227.48C113.028,205.243 112.314,205.572 112.33,203.486C112.462,186.63 145.735,254.437 146.147,274.531C146.609,297.038 136.89,261.979 122.55,227.48Z" style="fill:rgb(69,64,119);"/>
        <path d="M787.744,698.209C785.018,692.636 796.17,674.303 803.876,645.581C804.193,644.401 808.645,627.806 813.353,633.614C816.044,636.934 799.671,692.051 787.744,698.209Z" style="fill:rgb(68,64,120);"/>
        <path d="M826.533,712.551C828.134,710.059 827.672,708.948 830.504,709.478C856.42,714.332 895.188,698.808 907.499,697.601C908.821,697.472 914.678,701.198 904.283,705.021C865.971,719.114 838.41,712.519 826.533,712.551Z" style="fill:rgb(70,65,120);"/>
        <path d="M357.622,300.944C357.679,300.967 358.724,300.206 390.567,347.426C394.953,354.017 441.844,424.494 442.826,431.463C445.966,453.767 431.223,408.041 415.003,394.957C415.224,393.993 416.249,389.526 410.205,383.566C405.271,374.111 405.288,374.29 399.565,365.462L397.9,363.211C382.29,336.4 356.978,308.106 357.622,300.944Z" style="fill:rgb(130,121,162);"/>
        <path d="M586.587,795.528C582.059,798.549 582.59,798.93 576.743,805.498C571.77,808.642 572.019,808.603 567.227,812.004C566.338,812.89 565.448,813.776 564.559,814.662C551.549,819.293 551.083,816.518 544.147,818.165C537.422,818.794 537.113,818.405 537.301,817.89C537.508,817.324 537.912,816.217 542.51,812.455C551.248,811.267 550.98,810.763 558.677,806.825C595.095,788.197 590.039,780.165 593.528,780.416C593.568,780.419 595.857,781.207 586.587,795.528Z" style="fill:rgb(111,106,155);"/>
        <path d="M894.963,610.741C869.446,646.374 907.225,565.593 911.439,564.303C923.712,560.547 898.496,603.883 894.963,610.741Z" style="fill:rgb(68,63,120);"/>
        <path d="M727.616,766.164C716.258,762.334 715.367,763.285 714.281,760.596C709.666,749.171 742.569,761.216 762.181,772.987C769.702,777.501 764.298,780.862 761.447,779.667C744.644,772.618 744.997,772.231 727.616,766.164Z" style="fill:rgb(70,66,121);"/>
        <path d="M151.575,341.464C153.757,344.975 153.747,345.161 153.729,345.529C153.698,346.128 153.674,346.603 146.49,347.463C145.829,346.378 147.075,345.026 140.347,342.886C111.938,333.846 88.091,308.899 99.475,310.617C104.499,311.376 109.182,322.656 146.348,341.731C146.693,341.908 148.699,344.937 151.575,341.464Z" style="fill:rgb(73,68,124);"/>
        <path d="M187.463,223.486L186.425,224.364C176.524,218.617 198.824,167.62 201.531,168.242C209.954,170.176 195.983,186.898 187.463,223.486Z" style="fill:rgb(70,66,120);"/>
        <path d="M1023.999,632.5L1023.999,673.5C1018.824,663.383 1017.305,664.775 1008.505,657.496C1008.397,656.879 1008.29,656.263 1008.182,655.646C1008.78,652.805 1008.992,652.767 1008.827,652.578C1003.886,646.888 1015.551,650.392 1023.999,632.5Z" style="fill:rgb(253,253,253);fill-opacity:0.66;"/>
        <path d="M267.6,242.85C319.257,245.096 350.397,285.696 352.233,287.767C351.719,288.321 351.205,288.874 350.691,289.428C343.844,282.473 335.845,271.09 331.237,271.222L330.436,273.568C288.136,236.19 277.522,253.865 267.738,245.268C266.337,244.037 267.601,242.865 267.6,242.85Z" style="fill:rgb(249,249,248);fill-opacity:0.06;"/>
        <path d="M373.973,267.126C375.453,268.912 384.24,279.515 389.917,291.336C394.065,299.974 399.978,301.83 394.539,302.721C399.157,313.304 401.357,311.953 406.307,322.5C407.283,324.581 406.8,324.628 408.207,326.5C408.381,326.731 408.282,326.757 409.222,329.969C408.539,329.976 407.855,329.984 407.172,329.992C391.97,309.903 394.092,308.678 380.389,287.568C380.051,287.047 376.823,280.13 376.52,279.48C378.627,276.155 377.187,276.074 375.535,272.485L373.695,270.223C372.072,268.936 372.033,269.097 372.072,268.936C372.273,268.085 373.771,267.978 373.973,267.126Z" style="fill:rgb(198,193,207);"/>
        <path d="M360.584,559.233C391.996,608.812 418.236,642.41 418.504,650.497C418.31,650.228 416.791,648.124 415.753,647.401C402.964,628.296 357.124,563.243 360.584,559.233Z" style="fill:rgb(237,236,238);"/>
        <path d="M774.23,360.691C775.429,358.518 775.125,357.847 777.517,358.138C818.499,363.131 828.245,417.173 820.76,422.293C820.02,418.909 820.249,418.997 819.621,410.488C816.426,367.231 778.706,364.326 774.23,360.691Z" style="fill:rgb(239,238,240);"/>
        <path d="M672.357,676.436C672.881,677.306 673.405,678.176 673.93,679.046C673.072,680.525 672.056,680.573 673.487,682.527L672.485,683.457C670.38,684.718 670.881,685.009 670.914,686.406C671.094,694.117 660.307,696.463 667.824,697.987C644.55,731.611 644.821,731.785 642.574,733.691C640.32,735.602 630.893,752.241 629.911,746.471C629.798,745.806 648.235,722.526 653.735,711.62C658.207,702.753 661.355,704.354 663.075,694.446C663.352,692.849 664.022,688.985 672.357,676.436Z" style="fill:rgb(151,145,174);"/>
        <path d="M578.745,691.615C610.24,718.752 609.867,757.379 604.919,741.079C604.747,740.29 603.019,732.325 601.711,731.5C601.157,731.15 600.6,732.894 600.045,732.544C599.765,731.601 593.545,710.643 594.592,721.52C594.639,722.007 598.017,732.291 596.472,731.556C594.657,730.693 595.626,730.036 586.371,708.546C584.187,703.477 586.33,702.206 579.803,697.19C579.009,696.58 578.769,692.069 578.745,691.615Z" style="fill:rgb(136,130,165);"/>
        <path d="M311.446,459.63C311.921,459.882 311.875,459.873 315.9,462.42C317.803,466.844 325.742,475.587 327.608,483.463C330.903,497.367 333.544,496.1 339.894,509.076C339.858,509.096 339.09,512.649 333.525,506.739C334.146,505.377 333.858,505.379 332.945,504.287C331.736,502.842 320.064,488.889 319.5,484.956C319.41,484.331 320.679,484.032 320.59,483.407C321.838,484.854 323.086,486.3 324.335,487.746C324.524,487.116 325.667,487.118 325.856,486.487C326.827,483.251 313.06,476.539 309.173,460.541C309.326,460.419 309.36,460.586 311.446,459.63Z" style="fill:rgb(128,120,162);"/>
        <path d="M343.577,511.13C345.524,511.922 343.401,513.55 352.993,527.209C367.374,547.687 367.671,547.444 368.902,549.235C389.281,578.9 391.532,584.967 392.809,588.409C388.796,588.14 389.304,587.182 386.239,584.788C386.12,584.138 387.8,584.079 387.681,583.429C387.196,580.788 362.051,543.969 359.598,541.336C357.857,539.467 357.854,541.481 357.468,541.514C342.912,516.22 338.97,515.241 343.577,511.13Z" style="fill:rgb(137,131,169);"/>
        <path d="M354.65,624.522C356.231,623.01 356.426,621.446 357.633,623.367C362.383,630.929 362.808,630.656 362.891,631.421C363.85,640.315 369.397,644.938 383.193,668.673C400.723,698.831 401.678,699.097 400.265,701.714C399.734,701.071 395.247,695.633 393.435,693.832C393.231,693.334 394.553,692.998 394.349,692.5C392.973,689.14 392.496,689.605 389.756,687.377C388.3,685.25 388.142,685.521 386.939,683.261C365.03,642.102 363.414,643.067 361.616,639.439C361.031,638.259 354.757,625.602 354.65,624.522Z" style="fill:rgb(241,239,240);"/>
        <path d="M323.722,607.263L325.389,607.372C326.374,613.317 332.705,618.246 344.983,639.212C367.839,678.243 368.799,677.703 373.124,689.41C369.28,689.542 349.294,650.342 340.08,635.76C328.614,617.613 321.455,613.745 323.722,607.263Z" style="fill:rgb(212,211,221);"/>
        <path d="M1023.999,333.5L1023.999,355.5C1006.736,355.041 982.806,366.261 993.866,357.961C1001.045,352.575 1020.023,348.821 1022.584,336.582C1022.942,334.87 1023.235,335.164 1023.999,333.5Z" style="fill:rgb(254,254,254);fill-opacity:0.27;"/>
        <path d="M297.141,438.778C299.781,443.444 302.42,448.11 305.06,452.777C306.482,455.484 306.617,455.255 308.027,457.939C308.133,458.14 308.027,457.939 309.173,460.541C313.06,476.539 326.827,483.251 325.856,486.487C325.667,487.118 324.524,487.116 324.335,487.746C323.086,486.3 321.838,484.854 320.59,483.407C319.605,482.729 318.621,482.05 317.636,481.372C308.929,473.604 312.593,471.169 294.721,440.365C286.663,426.476 288.667,417.4 290.401,423.586C291.499,427.503 291.706,427.179 297.141,438.778Z" style="fill:rgb(240,240,239);"/>
        <path d="M595.049,547.334C593.013,552.131 590.977,556.927 588.941,561.723C583.843,559.528 585.189,563.522 578.003,577.302C566.199,599.939 565.791,599.691 564.815,601.682C562.808,605.773 560.583,605.694 562.976,609.781C559.102,615.546 560.386,616.444 554.982,620.769C553.966,618.5 553.852,618.663 553.966,618.5C558.535,611.944 557.338,611.49 561.175,604.341C586.421,557.297 588.7,550.534 595.049,547.334Z" style="fill:rgb(154,150,177);"/>
        <path d="M641.464,445.112C643.267,452.139 630.877,462.682 623.682,480.576C623.312,481.221 622.943,481.866 622.574,482.51C620.47,486.04 604.562,514.321 601.413,518.488C601.311,518.337 601.158,518.527 599.833,516.848C633.436,456.697 637.685,450.566 641.464,445.112Z" style="fill:rgb(119,116,159);"/>
        <path d="M457.46,489.588C471.584,516.188 478.593,522.771 497.121,557.61C496.915,558.239 496.708,558.868 496.501,559.497C492.35,556.044 471.725,514.426 456.433,495.533C453.607,492.041 457.052,489.847 457.46,489.588Z" style="fill:rgb(126,123,167);"/>
        <path d="M403.293,684.633C394.861,671.256 394.227,671.861 385.78,658.364C325.188,561.535 401.172,676.869 402.291,678.636C414.72,698.253 421.371,713.058 428.144,726.974C426.093,727.715 426.633,728.181 426.858,730.353C423.909,727.484 427.718,725.424 403.293,684.633Z" style="fill:rgb(182,181,201);"/>
        <path d="M451.113,432.54L452.622,432.076C461.216,440.803 478.294,477.801 483.741,485.06C484.76,486.417 491.299,495.13 494.384,503.41C491.185,503.678 491.873,502.171 482.242,486.539C465.885,459.992 467.384,459.308 451.113,432.54Z" style="fill:rgb(122,117,164);"/>
        <path d="M424.24,669.635C424.821,669.834 425.03,668.207 425.612,668.405C425.927,668.513 428.064,672.293 428.261,672.641C457.533,724.415 461.903,726.776 462.594,735.56L461.438,735.711C453.373,724.021 427.104,674.982 424.24,669.635Z" style="fill:rgb(218,216,223);"/>
        <path d="M774.7,597.452C769.986,610.767 752.818,629.397 752.051,638.515C751.232,648.252 744.235,649.854 743.092,650.115C745.348,646.352 746.937,645.229 743.109,643.124C745.369,639.58 771.301,601.46 772.415,598.297C772.97,596.718 773.262,596.849 774.7,597.452Z" style="fill:rgb(158,154,181);"/>
        <path d="M728.59,275.559C774.472,232.03 801.809,240.043 800.255,241.318C794.286,246.212 780.491,231.363 729.532,277.603C728.563,276.842 728.541,276.885 728.59,275.559Z" style="fill:rgb(149,148,177);"/>
        <path d="M886.513,408.5C884.884,413.901 883.859,413.432 859.94,473.822C842.636,517.507 865.003,448.933 882.672,413.6C884.472,410 882.715,406.86 886.513,408.5Z" style="fill:rgb(167,165,187);"/>
        <path d="M335.513,241.443C327.489,230.471 302.18,222.337 313.526,224.824C332.983,229.09 361.338,257.293 361.322,257.657C361.298,258.205 360.31,258.386 360.286,258.933L358.839,258.178C347.213,249.63 347.16,249.93 335.513,241.443Z" style="fill:rgb(121,112,155);"/>
        <path d="M610.847,463.692C609.602,466.533 609.714,466.312 609.602,466.533C583.124,518.549 581.191,522.301 578.261,518.436C578.897,517.428 583.21,510.596 585.779,505.571C606.746,464.558 606.956,463.36 610.847,463.692Z" style="fill:rgb(117,114,160);"/>
        <path d="M468.784,471.425C469.761,473.057 470.738,474.69 471.715,476.322C468.808,483.361 492.861,511.813 481.465,501.572C477.783,498.263 466.102,472.016 460.269,467.79C455.203,464.119 447.14,451.082 454.396,455.67C467.033,463.66 461.128,471.387 468.784,471.425Z" style="fill:rgb(196,190,206);"/>
        <path d="M874.549,404.48L874.547,405.496C870.653,413.782 871.004,413.69 866.984,421.95C851.619,453.526 846.724,461.713 848.343,454.607C848.932,452.024 848.997,452.174 848.875,451.679C849.054,451.268 849.232,450.858 849.41,450.448C871.529,406.545 870.368,404.772 874.549,404.48Z" style="fill:rgb(112,110,156);"/>
        <path d="M491.493,832.508C495.246,833.372 495.216,833.184 498.592,835.158C498.015,837.683 499.435,836.965 501.538,838.409C512.892,842.274 516.978,847.322 554.386,848.726C554.678,849.013 554.97,849.301 555.263,849.589C552.497,854.355 496.064,846.25 491.493,832.508Z" style="fill:rgb(154,150,179);"/>
        <path d="M628.614,545.515C617.124,569.481 616.656,569.199 616.365,571.477C615.356,579.359 614.011,578.726 608.346,584.503C608.043,584.23 607.74,583.958 607.436,583.685L606.548,583.598C607.964,580.374 623.305,545.442 628.614,545.515Z" style="fill:rgb(235,235,237);"/>
        <path d="M588.941,561.723L588.593,562.547C582.418,576.524 565.145,606.07 562.976,609.781C560.583,605.694 562.808,605.773 564.815,601.682C565.791,599.691 566.199,599.939 578.003,577.302C585.189,563.522 583.843,559.528 588.941,561.723Z" style="fill:rgb(107,97,153);"/>
        <path d="M415.753,647.401C416.791,648.124 418.31,650.228 418.504,650.497C420.773,653.327 420.585,653.297 435.343,675.603C449.034,696.296 448.178,697.962 447.19,699.884C435.707,681.796 425.052,661.893 414.453,649.511C414.887,648.808 415.32,648.105 415.753,647.401Z" style="fill:rgb(203,201,214);"/>
        <path d="M717.662,700.988C724.676,708.146 710.516,716.801 710.264,717.368C705.279,728.55 695.079,730.059 698.454,726.463C714.107,709.781 711.195,703.7 717.662,700.988Z" style="fill:rgb(146,141,171);"/>
        <path d="M174.22,345.794C175.097,348.008 175.375,349.171 176.832,347.476C178.46,364.105 187.309,374.252 188.142,385.727C179.984,377.797 176.335,358.442 173.259,353.505C173.109,352.86 172.918,353.048 172.773,352.423C172.68,352.023 172.694,352.051 171.697,347.403C172.987,346.249 172.793,346.332 174.22,345.794Z" style="fill:rgb(142,134,169);"/>
        <path d="M588.206,797.004C588.486,796.724 604.301,781.366 593.152,797.227C582.75,812.027 576.344,809.141 578.565,814.241C576.742,815.752 576.809,816.049 574.518,815.33C572.51,811.818 568.119,816.695 568.606,812.93C573.581,810.135 574.116,810.902 577.443,806.221C583.499,802.47 582.972,802.051 588.206,797.004Z" style="fill:rgb(121,115,160);"/>
        <path d="M407.172,329.992C407.855,329.984 408.539,329.976 409.222,329.969C411.418,331.473 411.909,331.004 412.572,333.994C411.85,341.574 415.902,340.165 420.291,351.598C421.613,355.039 425.237,353.746 426.581,368.468C423.92,367.626 424.026,367.609 422.626,365.318C426.344,363.201 411.183,346.486 407.91,331.398C407.883,331.274 407.91,331.398 407.172,329.992Z" style="fill:rgb(176,168,190);"/>
        <path d="M428.144,726.974C430.14,730.422 447.252,759.971 450.518,771.468L448.277,769.775C442.674,759.611 441.205,760.667 426.858,730.353C426.633,728.181 426.093,727.715 428.144,726.974Z" style="fill:rgb(228,227,235);"/>
        <path d="M332.273,372.589C332.578,368.881 327.777,370.547 325.508,370.643C318.001,370.959 316.692,367.105 301.464,377.388L300.837,376.308C310.177,365.072 329.528,362.06 341.393,373.987C338.915,374.575 338.791,374.29 337.613,376.342C334.846,375.026 335.103,375.048 332.539,373.471L332.273,372.589Z" style="fill:rgb(203,199,213);"/>
        <path d="M337.551,335.706C334.354,335.442 315.258,333.866 297.494,337.618C296.838,337.253 296.181,336.888 295.525,336.524C306.616,329.689 333.926,329.954 337.551,335.706Z" style="fill:rgb(233,232,236);"/>
        <path d="M545.418,648.807C547.99,645.446 546.038,642.75 544.836,639.438C542.167,632.08 550.719,640.608 557.211,650.683C557.908,651.766 564.456,661.929 565.458,664.516C569.127,673.991 555.326,654.117 550.591,648.387C549.265,646.782 549.67,648.709 548.592,650.429C546.531,650.468 546.53,650.499 545.418,648.807Z" style="fill:rgb(236,236,235);"/>
        <path d="M534.023,804.196C534.474,800.404 545.643,802.489 550.42,800.331C551.476,799.854 573.353,789.973 564.819,798.748C562.506,801.126 562.816,801.601 558.55,802.633C550.627,804.55 550.817,804.913 542.539,804.344C542.163,804.337 541.788,804.329 541.412,804.322C541.157,804.722 540.902,805.123 540.647,805.524C538.339,804.902 534.556,804.283 534.023,804.196Z" style="fill:rgb(182,178,197);"/>
        <path d="M357.468,541.514C357.854,541.481 357.857,539.467 359.598,541.336C362.051,543.969 387.196,580.788 387.681,583.429C387.8,584.079 386.12,584.138 386.239,584.788C381.986,579.209 370.669,561.073 357.468,541.514Z" style="fill:rgb(238,238,239);"/>
        <path d="M173.259,353.505C176.335,358.442 179.984,377.797 188.142,385.727C189.455,387.763 189.512,387.547 192.069,391.819C200.687,406.217 178.737,385.75 171.262,354.675C171.835,354.312 171.826,354.546 172.381,354.194C172.456,354.146 172.381,354.194 173.259,353.505Z" style="fill:rgb(198,196,212);"/>
        <path d="M323.722,607.263C321.838,604.333 291.002,556.381 303.272,568.82C305.057,570.629 303.96,571.339 320.047,595.796C326.039,604.906 325.861,605.183 325.389,607.372L323.722,607.263Z" style="fill:rgb(228,227,231);"/>
        <path d="M283.334,221.07C283.01,222.326 282.685,223.581 282.36,224.836C261.433,222.041 258.684,223.49 239.616,229.774C239.583,229.194 238.432,229.104 238.399,228.523C238.37,228.016 255.403,218.224 283.334,221.07Z" style="fill:rgb(203,201,213);"/>
        <path d="M607.495,823.442C608.121,824.869 609.03,826.321 597.834,832.757C595.157,834.295 577.518,844.435 561.625,846.128L560.902,844.745C585.517,836.796 586.136,837.972 607.495,823.442Z" style="fill:rgb(200,200,209);"/>
        <path d="M640.426,505.293C640.756,506.027 641.086,506.76 641.416,507.494C636.335,521.094 636.631,521.097 628.852,538.503C613.54,567.546 636.773,509.6 640.426,505.293Z" style="fill:rgb(215,215,220);"/>
        <path d="M334.543,340.44L336.257,340.807C336.728,340.949 337.198,341.091 337.669,341.232C343.986,343.363 343.942,343.358 344.491,343.533C345.724,343.927 345.58,343.585 346.77,343.965C349.013,344.311 348.743,343.809 350.972,343.043C351.431,343.158 358.809,345.018 355.519,346.818C352.352,348.551 352.585,343.675 349.481,345.27C347.536,346.27 347.915,347.463 344.5,346.947C339.666,346.217 338.672,348.494 335.804,344.417C334.434,342.468 333.262,345.167 331.621,343.434C331.395,343.194 331.325,343.573 327.504,343.493C323.5,343.408 323.127,343.081 322.5,339.077C328.768,338.576 328.596,338.824 334.543,340.44Z" style="fill:rgb(103,98,153);"/>
        <path d="M753.478,594.479C751.865,591.3 753.505,591.318 759.179,581.124C766.41,568.132 776.222,545.397 776.858,554.532C776.979,556.262 774.452,555.132 766.192,573.397C763.864,578.546 763.591,578.324 753.478,594.479Z" style="fill:rgb(159,157,185);"/>
        <path d="M729.695,684.069C730.532,684.493 731.369,684.917 732.206,685.341C730.583,687.77 730.783,687.706 729.131,690.218C726.736,693.859 727.196,693.984 725.165,697.21C723.618,699.668 715.62,702.937 719.655,695.577C724.17,687.341 725.95,675.643 729.695,684.069Z" style="fill:rgb(137,131,168);"/>
        <path d="M333.895,587.788C334.373,587.756 334.851,587.725 335.329,587.693C356.021,618.111 354.602,620.887 353.138,623.752C333.532,591.323 333.329,591.001 333.895,587.788Z" style="fill:rgb(226,224,230);"/>
        <path d="M599.833,516.848C601.158,518.527 601.311,518.337 601.413,518.488C589.343,538.965 589.778,539.072 577.519,559.575C576.999,559.238 576.48,558.9 575.961,558.563C577.823,555.199 595.54,523.188 599.833,516.848Z" style="fill:rgb(125,123,164);"/>
        <path d="M501.674,485.571C501.742,479.777 501.431,479.744 497.678,475.363C496.173,473.606 500.729,472.429 502.824,479.376C506.645,492.046 520.229,497.131 512.384,500.518C512.175,499.788 511.966,499.058 511.757,498.328C508.074,496.154 507.443,497.526 504.254,494.727C510.725,492.285 505.861,490.562 505.051,489.984C504.689,489.726 505.447,489.18 501.674,485.571Z" style="fill:rgb(196,193,206);"/>
        <path d="M257.623,393.67L258.357,393.408C259.283,399.119 256.799,398.814 257.112,404.536C253.912,413.559 252.429,412.274 252.101,412.505C250.738,403.925 251.803,404.03 250.396,395.48C254.142,395.585 255.35,398.238 256.614,395.37C256.8,394.947 255.309,394.886 255.545,394.489C255.925,393.849 257.243,394.311 257.623,393.67Z" style="fill:rgb(183,178,194);"/>
        <path d="M280.206,497.405C281.749,498.19 285.82,500.261 293.402,514.552C298.894,524.904 298.26,525.045 303.553,535.387C303.141,535.752 302.729,536.116 302.317,536.481C291.291,517.544 292.178,517.22 280.986,498.463L280.206,497.405Z" style="fill:rgb(194,193,208);"/>
        <path d="M221.122,455.732C246.041,499.143 211.632,441.454 206.5,440.498C204.375,440.103 198.089,430.129 206.091,435.87C210.808,439.253 210.718,439.265 221.122,455.732Z" style="fill:rgb(219,217,227);"/>
        <path d="M451.394,772.621C458.49,790.08 458.792,789.736 469.365,805.56C472.2,809.802 462.85,807.404 449.489,773.499C450.124,773.206 450.759,772.913 451.394,772.621Z" style="fill:rgb(182,180,205);"/>
        <path d="M622.568,793.898C630.867,797.215 577.561,835.309 599.314,816.426C618.485,799.785 616.654,797.998 622.568,793.898Z" style="fill:rgb(128,125,168);"/>
        <path d="M429.476,485.56L430.135,485.992C440.243,500.284 440.094,500.094 449.599,514.508C445.791,515.605 447.262,512.447 429.56,490.455C429.384,490.237 429.432,490.229 427.835,487.403C428.219,486.398 428.333,486.584 429.476,485.56Z" style="fill:rgb(195,192,212);"/>
        <path d="M379.464,344.94L378.864,345.5C377.682,343.922 366.378,328.833 364.354,325.582C350.849,303.89 374.17,328.796 379.464,344.94Z" style="fill:rgb(169,161,183);fill-opacity:0.98;"/>
        <path d="M182.763,389.021C183.398,390.475 183.285,390.366 184.385,391.616C192.199,400.496 205.159,421.021 205.217,424.084C203.074,421.919 201.59,420.421 182.85,393.262C181.165,390.82 181.143,389.75 181.136,389.413C181.11,388.149 182.786,390.133 182.763,389.021Z" style="fill:rgb(145,143,181);"/>
        <path d="M736.427,356.074C743.076,360.758 745.132,353.746 751.558,358.627C743.702,360.731 743.939,361.023 738.467,361.72C731.729,364.852 728.9,362.016 726.423,361.056C730.966,357.512 730.902,357.509 736.427,356.074Z" style="fill:rgb(197,193,206);"/>
        <path d="M314.161,552.985C324.971,568.246 326.189,574.111 332.983,584.349C331.554,586.482 331.036,585.361 329.695,583.356C327.881,580.771 313.233,555.145 313.027,554.217L314.161,552.985Z" style="fill:rgb(199,197,211);"/>
        <path d="M235.436,227.086C234.986,228.36 236.117,228.862 234.558,229.572C219.316,236.518 205.796,248.622 203.563,250.622C202.026,251.997 202.101,250.598 201.271,250.293C203.695,248.048 219.727,233.203 235.436,227.086Z" style="fill:rgb(120,113,157);"/>
        <path d="M511.757,498.328C511.966,499.058 512.175,499.788 512.384,500.518C513.815,502.171 526.997,517.386 527.195,523.48C527.364,528.687 521.262,517.124 520.173,515.789C515.737,510.35 507.278,501.574 511.757,498.328Z" style="fill:rgb(180,175,192);"/>
        <path d="M371.614,372.379C363.823,365.019 364.386,364.49 357.203,359.731C351.705,356.089 362.292,357.426 381.453,379.533C416.974,420.514 372.276,373.092 371.614,372.379Z" style="fill:rgb(156,155,187);"/>
        <path d="M274.016,356.079C272.559,357.916 271.102,359.753 269.646,361.59L268.231,363.239C266.091,366.34 266.162,366.241 264.225,369.463C261.432,372.523 261.196,372.45 261.456,376.497C261.097,377.426 260.738,378.355 260.378,379.285L258.509,379.493C255.4,372.923 272.493,350.077 274.016,356.079Z" style="fill:rgb(200,197,210);"/>
        <path d="M679.464,459.389C680.506,461.116 681.174,461.01 680.476,462.494C669.175,486.525 668.653,487.391 667.416,489.443C655.595,509.057 678.446,460.53 679.464,459.389Z" style="fill:rgb(151,150,178);"/>
        <path d="M493.235,762.8C493.913,764.414 493.899,764.274 493.913,764.414C494.087,766.159 494.328,768.564 506.569,782.32C505.196,782.509 505.341,782.452 504.591,783.463C501.439,781.189 497.235,775.911 494.74,773.251L493.799,771.418C491.524,767.814 491.591,768.024 489.732,764.432C491.133,762.679 491.031,762.113 493.235,762.8Z" style="fill:rgb(223,220,224);"/>
        <path d="M807.995,459.144L808.453,459.244C804.94,469.79 804.901,469.674 799.624,479.517C792.502,492.802 792.641,495.259 790.73,493.332C789.861,492.456 807.593,459.717 807.995,459.144Z" style="fill:rgb(129,128,170);"/>
        <path d="M295.036,378.133C293.421,380.177 292.113,382.452 290.497,384.496C283.651,393.16 291.429,369.876 309.505,364.777C319.847,361.861 306.642,367.018 299.164,374.042C296.938,376.132 297.107,376.081 295.036,378.133Z" style="fill:rgb(219,220,224);"/>
        <path d="M331.237,271.222C335.845,271.09 343.844,282.473 350.691,289.428C352.503,292.41 354.315,295.392 356.127,298.375C356.118,298.374 354.94,299.859 353.811,298.202C343.875,283.633 343.309,284.312 331.237,271.222Z" style="fill:rgb(131,121,165);"/>
        <path d="M404.689,696.275C410.397,700.762 414.641,711.103 420.722,722.396C419.697,722.44 420.468,723.551 419.442,723.595C419.329,723.6 419.207,723.606 418.559,722.489C404.946,699.024 403.798,699.795 403.55,697.475C403.492,696.926 404.748,696.823 404.689,696.275Z" style="fill:rgb(120,113,162);"/>
        <path d="M317.636,481.372C318.621,482.05 319.605,482.729 320.59,483.407C320.679,484.032 319.41,484.331 319.5,484.956C320.064,488.889 331.736,502.842 332.945,504.287C333.858,505.379 334.146,505.377 333.525,506.739C326.015,503.429 316.248,485.496 317.636,481.372Z" style="fill:rgb(223,222,226);"/>
        <path d="M575.961,558.563C576.48,558.9 576.999,559.238 577.519,559.575C578.578,560.764 579.141,560.733 578.155,564.17C577.904,565.046 569.257,582.27 568.493,582.27C564.232,582.271 567.34,579.499 570.419,573.451C574.457,565.516 573.122,565.202 575.961,558.563Z" style="fill:rgb(98,93,152);"/>
        <path d="M722.977,368.453L723.167,369.215C704.084,380.807 705.263,382.365 703.473,383.08L702.844,382.362C703.689,376.918 717.025,368.01 722.977,368.453Z" style="fill:rgb(250,250,250);"/>
        <path d="M501.978,583.57C505.062,581.775 504.445,584.725 516.678,605.438C524.751,619.108 509.71,602.714 501.978,583.57Z" style="fill:rgb(134,131,175);"/>
        <path d="M743.109,643.124C746.937,645.229 745.348,646.352 743.092,650.115C738.343,660.239 737.57,660.911 736.778,661.598C735.921,660.141 735.063,658.683 734.206,657.225C734.898,656.085 735.023,656.208 743.109,643.124Z" style="fill:rgb(232,232,234);fill-opacity:0.93;"/>
        <path d="M467.221,424.756C445.258,381.605 475.362,433.256 475.876,434.138C491.454,460.867 467.64,425.28 467.221,424.756Z" style="fill:rgb(204,202,207);"/>
        <path d="M269.646,361.59C270.169,361.833 270.101,361.84 272.375,363.496C266.811,373.914 266.615,373.7 262.716,384.729C262.036,381.793 262.061,381.956 260.378,379.285C260.738,378.355 261.097,377.426 261.456,376.497C263.448,373.137 264.236,373.548 264.225,369.463C271.785,370.049 268.505,363.764 268.231,363.239L269.646,361.59Z" style="fill:rgb(161,156,184);"/>
        <path d="M640.011,747.227C640.107,747.95 641.694,747.777 641.79,748.5C641.894,749.289 640.785,749.751 640.44,750.468C636.484,758.674 636.451,758.653 629.505,764.502C629.019,762.959 628.083,759.991 640.011,747.227Z" style="fill:rgb(169,165,189);"/>
        <path d="M717.622,687.719C716.849,689.236 710.839,701.031 707.327,706.341C704.677,710.348 702.767,701.245 715.25,688.119C716.041,687.986 716.831,687.852 717.622,687.719Z" style="fill:rgb(182,177,194);fill-opacity:0.98;"/>
        <path d="M902.822,350.498C904.267,356.167 904.399,356.025 904.475,356.519C899.859,359.557 901.742,360.62 900.193,366.434C899.042,372.037 897.258,372.232 899.52,375.512L898.258,377.429C896.883,376.514 897.079,376.54 895.536,376.537C896.318,375.472 898.765,357.835 902.822,350.498Z" style="fill:rgb(206,205,212);"/>
        <path d="M488.168,580.677C496.392,594.583 496.686,596.089 495.45,595.6C490.993,593.839 464.595,540.901 488.168,580.677Z" style="fill:rgb(141,139,177);"/>
        <path d="M1023.999,1.5L1023.999,32.5C1020.389,28.1 1021.835,17.155 1021.914,10.53C1021.982,4.839 1021.402,4.957 1021.965,2.519C1022.262,1.235 1023.671,2.921 1023.999,1.5Z" style="fill:rgb(254,254,254);fill-opacity:0.27;"/>
        <path d="M220.579,417.369C216.217,412.312 219.465,409.469 214.347,407.766C209.728,406.228 216.173,394.871 215.97,402.453C215.877,405.946 217.884,405.333 218.17,408.814C218.196,409.127 229.973,430.286 222.04,420.835C220.692,419.229 220.914,419.318 220.579,417.369Z" style="fill:rgb(111,106,157);"/>
        <path d="M790.129,528.317C802.823,508.297 782.998,546.933 780.542,548.568C777.5,550.594 779.025,546.511 790.129,528.317Z" style="fill:rgb(197,197,206);"/>
        <path d="M825.67,378.397C832.153,393.031 821.061,374.955 816.221,371.822C815.804,371.552 796.559,359.096 812.376,366.951C822.273,371.865 821.357,372.981 825.67,378.397Z" style="fill:rgb(158,155,176);"/>
        <path d="M415.999,465.189C415.966,466.198 415.932,467.207 415.899,468.216C415.707,468.24 413.496,468.512 413.496,468.512C412.409,466.941 400.163,449.244 400.45,448.505C401.111,446.804 401.799,448.223 415.999,465.189Z" style="fill:rgb(141,139,177);"/>
        <path d="M718.063,290.316C705.912,306.471 706.798,307.009 706.575,308.506C706.249,310.693 703.269,310.758 703.917,306.936C704.211,305.197 705.599,303.404 710.043,297.375C715.127,290.477 715.132,288.518 718.063,290.316Z" style="fill:rgb(112,108,159);"/>
        <path d="M308.594,341.73C289.293,344.829 291.055,350.928 286.531,350.022C281.355,348.985 304.58,335.239 308.594,341.73Z" style="fill:rgb(146,141,175);"/>
        <path d="M277.066,383.792C277.963,387.145 276.031,388.238 276.545,408.476C275.913,408.832 275.281,409.188 274.649,409.544C274.639,408.235 272.388,386.167 277.066,383.792Z" style="fill:rgb(131,128,164);"/>
        <path d="M761.06,627.435L762.54,627.772C755.569,649.669 751.471,649.53 749.446,649.461C755.998,637.457 756.231,637.7 761.06,627.435Z" style="fill:rgb(117,111,159);"/>
        <path d="M283.334,221.07C296.984,225.036 303.226,224.086 298.477,227.702C293.105,226.747 287.732,225.791 282.36,224.836C282.685,223.581 283.01,222.326 283.334,221.07Z" style="fill:rgb(182,179,193);"/>
        <path d="M357.666,641.511C353.562,643.21 354.711,640.274 352.65,636.422C352.111,635.414 343.784,619.851 348.223,622.842C349.66,623.811 356.976,639.986 357.666,641.511Z" style="fill:rgb(157,152,185);"/>
        <path d="M731.362,648.084C732.108,648.229 732.854,648.374 733.601,648.519C732.68,650.02 725.993,660.919 722.458,667.493C721.899,666.383 722.072,666.366 720.947,665.955C725.696,656.572 725.414,656.63 731.362,648.084Z" style="fill:rgb(231,231,233);"/>
        <path d="M544.153,660.39C545.75,662.087 546.401,661.331 547.152,663.578C548.47,667.522 549.064,667.012 551.697,670.285C551.068,672.102 550.863,672.049 551.902,673.701L552.101,674.17C550.384,679.541 549.464,673.808 543.338,665.655C544.262,664.246 543.898,664.329 544.153,660.39Z" style="fill:rgb(166,162,187);"/>
        <path d="M762.553,367.576C747.333,370.354 747.773,371.597 746.451,371.749C740.647,372.416 746.372,367.811 750.48,367.408C758.162,366.655 761.821,359.87 762.553,367.576Z" style="fill:rgb(114,110,159);"/>
        <path d="M283.15,543.647C281.945,541.923 282.143,542.066 280.797,540.279C274.355,531.727 270.082,519.043 275.954,528.163C276.43,528.904 292.253,553.189 283.15,543.647Z" style="fill:rgb(134,131,173);"/>
        <path d="M283.186,490.697C283.39,491.02 296.261,512.963 283.558,495.454C282.763,494.358 271.678,479.079 275.483,480.585C276.303,480.909 282.601,489.865 283.186,490.697Z" style="fill:rgb(184,182,203);"/>
        <path d="M736.427,356.074C750.696,354.236 756.792,355.708 758.509,356.123C757.988,356.402 757.915,355.918 751.558,358.627C745.132,353.746 743.076,360.758 736.427,356.074Z" style="fill:rgb(168,164,185);"/>
        <path d="M564.559,814.662C566.254,814.855 566.318,814.957 566.574,816.61C548.774,822.819 545.415,819.44 544.147,818.165C551.083,816.518 551.549,819.293 564.559,814.662Z" style="fill:rgb(152,149,174);"/>
        <path d="M798.204,514.33C807.439,501.225 807.374,501.182 807.6,501.187C810.358,501.243 798.826,518 797.532,519.551C789.682,528.959 797.992,514.694 798.204,514.33Z" style="fill:rgb(197,196,208);"/>
        <path d="M297.141,438.778C298.313,438.577 299.633,438.35 307.54,449.393C308.073,450.137 305.312,452.556 305.06,452.777C302.42,448.11 299.781,443.444 297.141,438.778Z" style="fill:rgb(148,142,174);"/>
        <path d="M258.606,380.429C260.671,383.612 258.529,384.235 260.48,387.502C260.138,389.98 259.886,389.81 258.357,393.408L257.623,393.67C255.726,391.792 255.856,391.951 253.968,389.937C256.778,385.398 255.841,385.081 258.606,380.429Z" style="fill:rgb(179,175,196);"/>
        <path d="M462.451,534.513C471.021,546.391 474.277,557.817 469.111,549.953C468.41,548.887 465.983,545.192 460.918,536.267C461.581,535.269 461.711,535.528 462.451,534.513Z" style="fill:rgb(128,124,169);"/>
        <path d="M895.536,376.537C897.079,376.54 896.883,376.514 898.258,377.429C895.83,384.122 895.574,383.848 893.142,390.365C892.23,392.133 891.79,391.867 890.183,390.448C890.628,389.342 893.094,383.222 895.536,376.537Z" style="fill:rgb(222,221,222);"/>
        <path d="M462.451,534.513C461.711,535.528 461.581,535.269 460.918,536.267C451.446,521.488 451.524,521.715 450.732,520.434C408.369,451.873 461.657,533.282 462.451,534.513Z" style="fill:rgb(157,157,183);"/>
        <path d="M828.605,412.382C830.955,411.035 831.398,411.013 832.642,413.44C828.213,416.963 829.527,417.694 829.789,423.5C829.952,427.108 829.259,426.913 828.449,427.539C827.923,424.765 824.828,418.324 828.605,412.382Z" style="fill:rgb(206,204,216);"/>
        <path d="M584.172,780.227C587.388,775.934 587.016,775.46 588.492,775.526C595.458,775.84 567.571,799.204 578.668,786.637C579.115,786.131 582.277,782.55 584.172,780.227Z" style="fill:rgb(187,185,196);"/>
        <path d="M568.381,672.614C571.242,669.945 571.371,670.119 571.557,670.368C575.623,675.826 576.034,675.787 576.069,682.712C575.153,681.502 574.645,682.337 573.792,681.21C573.302,680.563 573.391,680.574 568.381,672.614Z" style="fill:rgb(161,158,181);"/>
        <path d="M489.124,455.802C496.055,467.976 496.893,467.346 497.053,468.535C498.077,476.151 489.711,462.434 486.88,456.18C488.135,456.193 487.934,455.832 489.124,455.802Z" style="fill:rgb(186,184,194);"/>
        <path d="M379.464,344.94C384.455,347.888 385.577,346.716 387.776,351.441C393.474,363.682 380.622,349.541 378.864,345.5L379.464,344.94Z" style="fill:rgb(205,202,212);"/>
        <path d="M489.378,828.538L488.43,829.281C487.431,829.163 485.641,828.951 478.675,821.352C469.118,810.925 483.59,821.133 489.378,828.538Z" style="fill:rgb(152,148,183);"/>
        <path d="M396.977,367.565L397.398,367.416C401.586,368.522 415.048,396.966 402.668,378.395C399.205,373.201 399.788,373.103 396.977,367.565Z" style="fill:rgb(210,204,214);"/>
        <path d="M303.553,535.387C304.343,536.457 311.871,546.644 312.303,549.53C314.156,561.906 302.872,537.672 302.317,536.481C302.729,536.116 303.141,535.752 303.553,535.387Z" style="fill:rgb(200,201,212);"/>
        <path d="M831.183,395.508C833.365,406.879 831.405,410.177 830.691,407.403C830.132,405.232 825.993,372.287 831.183,395.508Z" style="fill:rgb(210,209,216);"/>
        <path d="M295.525,336.524C296.181,336.888 296.838,337.253 297.494,337.618C281.412,344.713 283.037,347.925 281.547,347.691C280.993,347.604 280.958,346.546 280.404,346.459C287.615,340.765 287.539,341.03 295.525,336.524Z" style="fill:rgb(167,164,189);"/>
        <path d="M309.091,382.342C311.81,381.06 311.699,381.152 314.53,380.573C315.168,380.442 322.115,379.02 322.587,379.397C326.629,382.618 310.415,383.12 309.312,383.154L309.091,382.342Z" style="fill:rgb(208,204,213);fill-opacity:0.96;"/>
        <path d="M561.478,692.545L560.771,693.573C552.758,681.935 552.501,682.058 552.175,680.543C551.565,677.717 557.103,680.519 561.478,692.545Z" style="fill:rgb(182,179,194);fill-opacity:0.94;"/>
        <path d="M451.113,432.54C450.391,431.496 442.674,420.342 443.608,418.561C444.212,417.411 446.852,416.565 452.622,432.076L451.113,432.54Z" style="fill:rgb(113,106,161);"/>
        <path d="M727.24,642.424C729.502,642.441 729.398,642.589 729.502,642.441C733.28,637.075 732.999,636.881 733.491,636.601C737.395,634.371 728.256,647.696 727.654,648.575C724.824,646.148 725.741,645.7 727.24,642.424Z" style="fill:rgb(207,205,217);fill-opacity:0.98;"/>
        <path d="M708.451,371.364C706.551,372.902 701,378.747 700.372,379.408C695.839,370.239 707.542,371.283 708.451,371.364Z" style="fill:rgb(188,182,199);"/>
        <path d="M586.587,795.528C587.127,796.02 587.666,796.512 588.206,797.004C582.972,802.051 583.499,802.47 577.443,806.221L576.743,805.498C582.59,798.93 582.059,798.549 586.587,795.528Z" style="fill:rgb(208,206,220);"/>
        <path d="M451.919,448.537L451.439,449.435C445.697,449.81 439.612,432.789 446.685,442.151C449.275,445.578 450.344,444.583 451.919,448.537Z" style="fill:rgb(221,218,224);"/>
        <path d="M355.113,560.497C358.285,559.159 357.939,562.104 360.687,568.485C360.806,568.763 367.14,583.469 359.97,572.188C359.335,571.188 359.431,571.179 355.113,560.497Z" style="fill:rgb(111,108,157);"/>
        <path d="M702.844,382.362L703.473,383.08C703.041,384.086 699.547,392.232 695.315,394.075C694.293,394.52 692.057,392.005 702.844,382.362Z" style="fill:rgb(154,150,186);"/>
        <path d="M609.728,778.62C602.967,790.226 606.362,774.936 608.532,773.55C609.098,773.189 613.69,775.549 611.304,777.268C610.432,777.896 610.665,777.816 609.728,778.62Z" style="fill:rgb(221,219,226);fill-opacity:0.89;"/>
        <path d="M334.543,340.44C330.971,333.757 345.99,341.807 346.869,342.277C346.836,342.84 346.803,343.402 346.77,343.965C345.58,343.585 345.724,343.927 344.491,343.533C343.942,343.358 343.986,343.363 337.669,341.232C337.198,341.091 336.728,340.949 336.257,340.807L334.543,340.44Z" style="fill:rgb(158,159,181);"/>
        <path d="M720.947,665.955C722.072,666.366 721.899,666.383 722.458,667.493C719.657,672.889 720.27,673.201 715.895,677.524C714.583,674.851 714.065,675.028 714.709,673.501C715.645,673.881 716.422,674.365 720.947,665.955Z" style="fill:rgb(244,244,242);fill-opacity:0.06;"/>
        <path d="M679.632,458.708C679.921,457.888 679.881,458 683.983,448.745C688.209,439.209 687.774,455.646 679.632,458.708Z" style="fill:rgb(124,120,163);"/>
        <path d="M890.183,390.448C891.79,391.867 892.23,392.133 893.142,390.365C894.413,393.334 893.39,393.181 891.791,397.753C891.036,397.636 890.281,397.518 889.527,397.4C888.85,397.434 888.173,397.467 887.497,397.501C887.695,397.006 887.431,397.154 887.68,396.532C887.876,396.043 887.866,396.081 890.183,390.448Z" style="fill:rgb(201,199,208);"/>
        <path d="M290.793,551.439C294.756,558.114 296.047,560.78 296.453,561.619C295.813,561.913 295.173,562.207 294.534,562.501C291.596,557.885 291.27,558.254 288.956,553.129C290.668,552.705 290.1,552.156 290.793,551.439Z" style="fill:rgb(127,121,167);"/>
        <path d="M640.173,479.21C644.748,482.104 640.675,482.804 638.169,487.5C638.169,487.5 636.493,487.414 636.347,487.407C636.504,482.568 637.206,482.892 640.173,479.21Z" style="fill:rgb(135,130,168);"/>
        <path d="M268.126,437.789C270.689,442.693 266.535,439.714 266.428,439.549C260.114,429.818 262.704,428.068 263.223,428.8C263.697,429.468 263.144,429.756 268.126,437.789Z" style="fill:rgb(147,145,180);"/>
        <path d="M501.674,485.571C505.447,489.18 504.689,489.726 505.051,489.984C505.861,490.562 510.725,492.285 504.254,494.727C501.754,490.338 501.232,490.542 501.674,485.571Z" style="fill:rgb(218,214,220);"/>
        <path d="M371.277,403.447C377.701,404.261 384.997,420.751 376.775,411.264C373.434,407.41 373.322,407.6 371.277,403.447Z" style="fill:rgb(164,163,190);"/>
        <path d="M826.013,432.368L825.467,434.473L824.513,434.578L822.853,434.174L821.791,433.447C823.343,428.349 822.718,422.742 825.571,427.432C826.267,428.575 825.952,428.487 826.013,432.368Z" style="fill:rgb(208,205,216);"/>
        <path d="M174.993,336.407L176.832,347.476C175.375,349.171 175.097,348.008 174.22,345.794C173.642,341.331 171.288,340.77 174.993,336.407Z" style="fill:rgb(215,209,217);"/>
        <path d="M489.378,828.538C493.328,829.764 498.934,832.539 500.574,834.485C499.913,834.709 499.253,834.934 498.592,835.158C495.216,833.184 495.246,833.372 491.493,832.508C489.759,830.973 490.106,830.847 488.43,829.281L489.378,828.538Z" style="fill:rgb(126,122,165);"/>
        <path d="M410.205,383.566C416.249,389.526 415.224,393.993 415.003,394.957C413.004,393.447 410.269,391.398 410.205,383.566Z" style="fill:rgb(204,199,208);"/>
        <path d="M363.844,560.295C362.797,556.851 360.79,553.289 363.284,555.939C365.131,557.901 364.863,558.027 368.542,564.495C378.547,582.086 364.126,560.713 363.844,560.295Z" style="fill:rgb(142,136,177);"/>
        <path d="M253.968,389.937C255.856,391.951 255.726,391.792 257.623,393.67C257.243,394.311 255.925,393.849 255.545,394.489C255.309,394.886 256.8,394.947 256.614,395.37C255.35,398.238 254.142,395.585 250.396,395.48C250.601,394.488 250.805,393.497 251.009,392.506C252.908,391.693 252.821,391.673 253.968,389.937Z" style="fill:rgb(163,155,181);"/>
        <path d="M489.124,455.802C487.934,455.832 488.135,456.193 486.88,456.18C483.289,451.753 482.535,450.174 482.258,449.593C469.604,423.082 488.745,455.166 489.124,455.802Z" style="fill:rgb(194,191,200);"/>
        <path d="M576.743,805.498L577.443,806.221C574.116,810.902 573.581,810.135 568.606,812.93L567.227,812.004C572.019,808.603 571.77,808.642 576.743,805.498Z" style="fill:rgb(119,116,160);"/>
        <path d="M600.045,732.544C600.6,732.894 601.157,731.15 601.711,731.5C603.019,732.325 604.747,740.29 604.919,741.079C600.018,740.103 600.302,735.347 600.045,732.544Z" style="fill:rgb(201,199,209);"/>
        <path d="M728.59,275.559C728.541,276.885 728.563,276.842 729.532,277.603C728.771,278.521 728.797,278.431 721.578,285.697C720.861,285.02 719.188,283.441 728.59,275.559Z" style="fill:rgb(110,106,156);"/>
        <path d="M772.297,495.349C774.769,499.206 773.785,504.48 768.001,502.174C769.88,498.533 769.522,498.491 772.297,495.349Z" style="fill:rgb(172,170,189);"/>
        <path d="M425.795,477.434C430.044,480.616 430.571,480.684 430.135,485.992L429.476,485.56C427.151,483.632 427.414,483.637 424.101,479.999C424.666,479.144 425.23,478.289 425.795,477.434Z" style="fill:rgb(117,111,160);"/>
        <path d="M497.508,562.767L498.387,563.584C498.649,564.156 511.234,591.648 499.72,571.331C495.669,564.185 496.142,563.522 497.508,562.767Z" style="fill:rgb(185,183,208);"/>
        <path d="M274.016,356.079C274.9,356.712 275.785,357.345 276.67,357.978C276.321,358.415 273.861,361.5 272.375,363.496C270.101,361.84 270.169,361.833 269.646,361.59C271.102,359.753 272.559,357.916 274.016,356.079Z" style="fill:rgb(114,108,158);"/>
        <path d="M567.227,812.004L568.606,812.93C568.119,816.695 572.51,811.818 574.518,815.33C572.889,815.839 571.26,816.348 569.632,816.857C568.613,816.774 567.594,816.692 566.574,816.61C566.318,814.957 566.254,814.855 564.559,814.662C565.448,813.776 566.338,812.89 567.227,812.004Z" style="fill:rgb(117,113,160);"/>
        <path d="M417.624,469.561C418.235,469.557 418.846,469.553 419.456,469.548C421.263,472.332 421.062,472.26 423.109,474.747C422.575,475.65 422.041,476.553 421.507,477.456C418.697,473.691 417.252,474.222 417.624,469.561Z" style="fill:rgb(230,229,236);"/>
        <path d="M603.002,749.489C603.492,746.463 604.669,744.963 606.268,747.609C607.393,749.469 603.895,757.694 603.002,749.489Z" style="fill:rgb(176,172,192);"/>
        <path d="M879.198,389.464C877.72,393.891 879.132,396.24 874.587,395.489C875.105,393.163 875.667,385.388 879.198,389.464Z" style="fill:rgb(120,118,161);"/>
        <path d="M821.496,451.475C822.985,456.113 821.297,456.008 820.171,461.307C819.521,461.402 818.872,461.498 818.222,461.594C819.351,456.118 818.188,455.8 821.496,451.475Z" style="fill:rgb(161,160,184);"/>
        <path d="M698.313,381.08C695.536,385.062 695.63,384.947 692.123,388.295C693.357,382.391 692.574,379.633 698.313,381.08Z" style="fill:rgb(199,196,210);"/>
        <path d="M390.288,698.933L388.816,699.68C388.518,699.085 369.392,658.504 387.313,691.5C387.619,692.063 387.286,691.999 390.288,698.933Z" style="fill:rgb(200,196,208);"/>
        <path d="M389.756,687.377C392.496,689.605 392.973,689.14 394.349,692.5C394.553,692.998 393.231,693.334 393.435,693.832C392.321,694.279 392.564,694.405 392.387,695.561C387.479,688.815 389.364,688.23 389.756,687.377Z" style="fill:rgb(199,193,208);"/>
        <path d="M405.707,308.414C407.435,312.839 408.02,312.68 407.645,317.459C406.189,315.88 401.11,312.337 405.707,308.414Z" style="fill:rgb(210,205,219);"/>
        <path d="M767.504,367.635C767.858,366.685 766.424,365.914 768.317,365.459C772.678,364.409 773.32,362.503 775.257,365.478C775.608,366.017 775.606,367.01 767.504,367.635Z" style="fill:rgb(112,108,159);"/>
        <path d="M889.527,397.4C890.281,397.518 891.036,397.636 891.791,397.753C888.42,406.895 885.703,404.159 885.587,403.493C885.544,403.251 885.587,403.493 886.875,400.705C888.911,399.54 888.998,399.656 889.527,397.4Z" style="fill:rgb(163,159,185);"/>
        <path d="M329.695,583.356C331.036,585.361 331.554,586.482 332.983,584.349C334.075,586.137 334.19,585.85 335.329,587.693C334.851,587.725 334.373,587.756 333.895,587.788C329.675,589.47 328.247,588.98 328.342,584.5C328.354,583.909 329.682,583.946 329.695,583.356Z" style="fill:rgb(133,128,165);"/>
        <path d="M424.101,479.999C427.414,483.637 427.151,483.632 429.476,485.56C428.333,486.584 428.219,486.398 427.835,487.403C424.817,484.556 422.7,481.093 422.332,480.49C422.921,480.326 423.511,480.162 424.101,479.999Z" style="fill:rgb(190,187,207);"/>
        <path d="M644.715,740.594C648.613,742.123 649.337,744.053 645.65,745.976C643.537,747.077 644.013,745.617 642.765,743.699C643.415,742.664 644.065,741.629 644.715,740.594Z" style="fill:rgb(163,159,182);"/>
        <path d="M532.859,532.265C535.791,541.066 525.248,527.605 528.47,527.405C529.419,527.346 529.17,527.626 532.859,532.265Z" style="fill:rgb(200,199,208);fill-opacity:0.95;"/>
        <path d="M454.685,700.419C457.723,704.288 459.669,704.698 456.511,708.494C454.508,704.431 453.238,704.626 454.685,700.419Z" style="fill:rgb(230,230,231);fill-opacity:0.4;"/>
        <path d="M413.901,451.282C412.652,449.508 412.712,449.671 412.652,449.508C412.459,448.99 414.426,446.911 418.232,453.585C429.151,472.737 414.122,451.606 413.901,451.282Z" style="fill:rgb(117,112,164);"/>
        <path d="M489.43,768.447C489.216,771.522 489.647,771.278 490.987,774.107C485.067,778.419 485.89,768.569 489.43,768.447Z" style="fill:rgb(121,114,159);"/>
        <path d="M489.43,768.447C491.166,770.716 490.752,771.35 493.799,771.418L494.74,773.251C493.476,774.293 493.549,775.876 490.987,774.107C489.647,771.278 489.216,771.522 489.43,768.447Z" style="fill:rgb(182,178,195);"/>
        <path d="M357.75,259.757C362.673,263.901 364.173,263.061 364.5,267.499C359.222,264.81 356.936,265.743 357.75,259.757Z" style="fill:rgb(219,215,221);fill-opacity:0.91;"/>
        <path d="M637.107,541.346C637.342,540.983 654.45,517.727 641.72,538.547C640.414,540.683 639.858,541.346 639.67,541.57C637.624,544.007 637.507,541.381 637.107,541.346Z" style="fill:rgb(138,136,168);"/>
        <path d="M258.509,379.493L260.378,379.285C262.061,381.956 262.036,381.793 262.716,384.729C261.441,386.055 261.748,386.13 260.48,387.502C258.529,384.235 260.671,383.612 258.606,380.429L258.509,379.493Z" style="fill:rgb(134,129,168);"/>
        <path d="M900.193,366.434C902.967,370.051 901.103,370.283 899.52,375.512C897.258,372.232 899.042,372.037 900.193,366.434Z" style="fill:rgb(140,133,172);"/>
        <path d="M701.202,712.376C705.448,704.052 703.164,714.093 703.081,714.291C699.325,723.252 701.139,712.581 701.202,712.376Z" style="fill:rgb(203,200,207);fill-opacity:0.99;"/>
        <path d="M642.591,499.654C643.853,500.231 643.724,500.135 644.253,501.449C643.348,504.914 643.414,504.751 641.416,507.494C641.086,506.76 640.756,506.027 640.426,505.293C641.477,503.5 642.457,500.118 642.591,499.654Z" style="fill:rgb(137,135,175);"/>
        <path d="M871.734,397.809C870.164,406.101 867.681,398.677 867.758,398.543C867.974,398.169 870.808,393.25 871.425,394.576C871.535,394.812 871.448,394.816 871.734,397.809Z" style="fill:rgb(96,91,149);"/>
        <path d="M268.231,363.239C268.505,363.764 271.785,370.049 264.225,369.463C266.162,366.241 266.091,366.34 268.231,363.239Z" style="fill:rgb(144,137,173);"/>
        <path d="M490.083,739.967C490.087,745.005 484.072,742.011 486.578,739.58C488.113,738.092 488.184,738.945 490.083,739.967Z" style="fill:rgb(204,200,214);"/>
        <path d="M423.109,474.747C424.005,475.643 424.9,476.538 425.795,477.434C425.23,478.289 424.666,479.144 424.101,479.999C423.511,480.162 422.921,480.326 422.332,480.49C421.48,477.519 421.507,477.719 421.507,477.456C422.041,476.553 422.575,475.65 423.109,474.747Z" style="fill:rgb(144,136,179);"/>
        <path d="M642.591,499.654C645.468,494.162 646.086,494.272 646.61,494.365C649.714,494.918 647.208,496.107 644.253,501.449C643.724,500.135 643.853,500.231 642.591,499.654Z" style="fill:rgb(123,120,166);"/>
        <path d="M511.568,615.485C507.296,615.005 506.924,614.782 505.744,610.509C504.975,607.722 507.014,610.094 511.568,615.485Z" style="fill:rgb(132,130,168);"/>
        <path d="M552.105,627.437C552.004,629.102 551.902,630.767 551.801,632.431C550.447,631.481 544.178,624.735 552.105,627.437Z" style="fill:rgb(216,213,221);fill-opacity:0.98;"/>
        <path d="M296.453,561.619C298.519,563.494 298.344,563.355 298.519,563.494C299.228,564.06 299.19,563.753 299.934,564.357C301.433,565.574 298.111,568.071 294.534,562.501C295.173,562.207 295.813,561.913 296.453,561.619Z" style="fill:rgb(176,173,194);"/>
        <path d="M381.883,702.859C382.083,703.402 385.006,711.331 382.614,710.056C381.941,709.697 382.181,709.625 380.46,703.744C380.934,703.449 381.408,703.154 381.883,702.859Z" style="fill:rgb(210,208,214);fill-opacity:0.88;"/>
        <path d="M497.121,557.61C501.167,559.827 502.578,561.688 498.387,563.584L497.508,562.767C497.594,562.276 498.611,562.348 498.697,561.856C498.742,561.602 498.534,561.681 496.501,559.497C496.708,558.868 496.915,558.239 497.121,557.61Z" style="fill:rgb(119,114,162);"/>
        <path d="M497.834,722.558C498.936,726.583 497.97,726.434 496.887,729.584C495.765,727.977 494.032,727.525 497.834,722.558Z" style="fill:rgb(203,202,213);fill-opacity:0.95;"/>
        <path d="M808.052,457.812C808.304,456.215 807.792,456.263 808.718,453.589C816.002,432.561 809.529,458.028 809.42,458.401L808.052,457.812Z" style="fill:rgb(158,158,190);"/>
        <path d="M493.235,762.8C491.031,762.113 491.133,762.679 489.732,764.432C484.058,754.426 493.022,762.576 493.235,762.8Z" style="fill:rgb(152,149,177);"/>
        <path d="M562.614,821.797C556.152,823.539 556.083,823.498 555.588,823.209C555.094,822.919 554.319,818.629 562.614,821.797Z" style="fill:rgb(124,120,163);"/>
        <path d="M604.058,572.483C607.668,569.427 608.153,570.26 608.341,570.584C610.137,573.671 604.483,574.375 604.024,574.432L604.058,572.483Z" style="fill:rgb(189,187,197);fill-opacity:0.99;"/>
        <path d="M822.611,439.939L824.822,441.654L824.42,442.511C823.434,442.679 823.205,441.764 822.571,442.827C818.362,449.879 820.558,440.79 820.614,440.557C821.28,440.351 821.946,440.145 822.611,439.939Z" style="fill:rgb(139,135,172);"/>
        <path d="M364.5,267.499C367.762,268.819 367.549,268.811 370.188,271.08L369.105,272.733C366.43,270.336 366.148,270.771 364.5,267.499Z" style="fill:rgb(225,222,225);fill-opacity:0.82;"/>
        <path d="M500.574,834.485C502.145,836.255 502.484,836.321 501.538,838.409C499.435,836.965 498.015,837.683 498.592,835.158C499.253,834.934 499.913,834.709 500.574,834.485Z" style="fill:rgb(105,100,156);"/>
        <path d="M347.482,533.579C347.81,533.817 352.198,537.007 349.522,538.218C348.365,538.742 348.596,537.973 346.749,535.436C346.993,534.817 347.238,534.198 347.482,533.579Z" style="fill:rgb(127,124,170);"/>
        <path d="M348.802,682.318C348.903,682.55 351.015,687.417 348.521,685.462C346.029,683.51 346.483,680.115 348.802,682.318Z" style="fill:rgb(194,194,196);fill-opacity:0.96;"/>
        <path d="M397.9,363.211L399.565,365.462C398.842,366.113 398.12,366.765 397.398,367.416L396.977,367.565C396.035,365.18 395.743,364.821 397.9,363.211Z" style="fill:rgb(233,231,233);fill-opacity:0.22;"/>
        <path d="M750.046,392.534C754.525,390.704 754.56,390.342 755.393,390.714C755.806,390.898 757.297,395.306 750.046,392.534Z" style="fill:rgb(225,225,225);fill-opacity:0.82;"/>
        <path d="M561.478,692.545C561.75,692.891 564.55,696.461 564.14,697.355C563.971,697.723 561.817,699.696 560.771,693.573L561.478,692.545Z" style="fill:rgb(207,207,209);fill-opacity:0.95;"/>
        <path d="M572.419,793.731L571.393,794.412C566.218,789.222 573.462,789.747 573.427,790.499C573.395,791.189 573.243,790.985 572.517,791.547C570.771,792.9 572.43,793.497 572.419,793.731Z" style="fill:rgb(231,230,232);fill-opacity:0.56;"/>
        <path d="M276.545,408.476C276.565,408.721 276.793,411.54 276.793,411.54C274.848,421.684 274.653,409.778 274.649,409.544C275.281,409.188 275.913,408.832 276.545,408.476Z" style="fill:rgb(172,173,192);"/>
        <path d="M277.572,354.573C282.009,352.999 281.945,354.156 281.926,354.504C281.837,356.101 281.15,355.463 278.499,356.481C278.447,356.431 278.483,356.484 277.572,354.573Z" style="fill:rgb(161,158,188);"/>
        <path d="M747.543,652.508C747.591,656.462 742.334,658.495 744.625,655.53C745.943,653.825 745.8,653.865 747.543,652.508Z" style="fill:rgb(115,109,157);"/>
        <path d="M423.421,414.502L423.51,415.508C422.858,415.487 422.207,415.466 421.555,415.445C418.15,409.654 423.327,414.364 423.421,414.502Z" style="fill:rgb(164,162,191);"/>
        <path d="M257.448,417.622C258.763,418.395 259.121,418.221 258.852,419.64C258.579,421.082 253.376,420.081 257.448,417.622Z" style="fill:rgb(180,179,196);"/>
        <path d="M786.496,502.496C780.721,505.222 785.419,499.362 786.541,499.802C788.209,500.456 787.237,500.884 786.496,502.496Z" style="fill:rgb(131,128,172);"/>
        <path d="M415.999,465.189C418.27,468.4 418.248,468.385 418.452,468.657C418.9,469.258 419.022,468.966 419.456,469.548C418.846,469.553 418.235,469.557 417.624,469.561C417.049,469.112 416.474,468.664 415.899,468.216C415.932,467.207 415.966,466.198 415.999,465.189Z" style="fill:rgb(137,133,174);"/>
        <path d="M722.787,328.941C718.837,329.951 723.256,323.692 724.36,325.555C724.949,326.548 724.36,326.494 722.787,328.941Z" style="fill:rgb(224,223,224);fill-opacity:0.84;"/>
        <path d="M731.362,648.084C731.462,647.931 737.195,641.257 733.601,648.519C732.854,648.374 732.108,648.229 731.362,648.084Z" style="fill:rgb(156,151,182);"/>
        <path d="M732.331,681.726C733.12,682.132 733.908,682.538 734.697,682.944C733.867,683.743 733.037,684.542 732.206,685.341C731.369,684.917 730.532,684.493 729.695,684.069C730.574,683.288 731.452,682.507 732.331,681.726Z" style="fill:rgb(209,206,218);fill-opacity:0.83;"/>
        <path d="M814.084,232.73L813.342,234.135C811.198,234.302 810.105,234.78 810.613,232.542C811.107,230.369 813.866,232.557 814.084,232.73Z" style="fill:rgb(220,221,228);"/>
        <path d="M826.911,397.07C828.035,399.313 827.151,399.611 824.643,399.525C824.647,399.516 822.692,397.56 826.911,397.07Z" style="fill:rgb(210,208,220);fill-opacity:0.95;"/>
        <path d="M264.225,369.463C264.236,373.548 263.448,373.137 261.456,376.497C261.196,372.45 261.432,372.523 264.225,369.463Z" style="fill:rgb(170,166,186);"/>
        <path d="M832.636,250.457L832.431,251.443C827.682,252.295 829.396,249.797 829.565,249.582C830.582,248.29 832.46,250.272 832.636,250.457Z" style="fill:rgb(125,123,168);"/>
        <path d="M294.435,415.4C288.196,415.28 293.034,412.036 293.548,412.368C294.326,412.869 294.424,415.148 294.435,415.4Z" style="fill:rgb(215,215,228);"/>
        <path d="M219.382,249.204C213.548,247.79 220.235,246.835 220.626,247.496C220.712,247.641 220.626,247.496 219.382,249.204Z" style="fill:rgb(120,115,166);"/>
        <path d="M381.524,319.149C379.825,317.654 379.327,317.942 379.373,316.489C379.386,316.114 383.83,313.494 381.524,319.149Z" style="fill:rgb(145,143,183);"/>
        <path d="M684.246,395.599C682.576,398.038 682.631,398.061 682.443,398.233C679.95,400.524 682.751,392.708 684.246,395.599Z" style="fill:rgb(205,203,211);fill-opacity:0.86;"/>
        <path d="M272.379,449.689C272.273,449.538 271.271,448.118 271.587,447.53C272.408,446.003 276.472,449.037 272.379,449.689Z" style="fill:rgb(147,145,184);"/>
        <path d="M887.497,397.501C888.173,397.467 888.85,397.434 889.527,397.4C888.998,399.656 888.911,399.54 886.875,400.705C886.879,398.977 886.779,399.1 887.497,397.501Z" style="fill:rgb(129,124,166);"/>
        <path d="M718.859,663.833L717.827,665.646C715.59,664.03 715.579,663.752 715.57,663.503C715.482,661.116 716.689,663.108 718.859,663.833Z" style="fill:rgb(235,234,235);fill-opacity:0.52;"/>
        <path d="M888.006,424.427C888.246,424.566 891.979,426.729 886.619,427.605C887.424,426.431 887.929,424.693 888.006,424.427Z" style="fill:rgb(217,216,220);fill-opacity:0.7;"/>
        <path d="M290.793,551.439C290.1,552.156 290.668,552.705 288.956,553.129C288.915,552.934 287.791,547.625 290.793,551.439Z" style="fill:rgb(147,143,182);"/>
        <path d="M727.69,667.561C727.936,667.644 735.887,670.309 729.507,670.243C727.915,670.226 728.122,669.523 726.625,669.579C726.722,669.425 726.616,669.454 727.69,667.561Z" style="fill:rgb(228,226,232);fill-opacity:0.4;"/>
        <path d="M451.919,448.537C454.148,450.412 454.216,450.335 454.326,450.562C460.018,462.305 451.557,449.652 451.439,449.435L451.919,448.537Z" style="fill:rgb(229,226,230);fill-opacity:0.57;"/>
        <path d="M373.695,270.223L375.535,272.485C373.614,273.426 373.718,273.562 373.614,273.426C372.392,271.827 373.656,271.762 373.695,270.223Z" style="fill:rgb(183,175,188);"/>
        <path d="M346.869,342.277C348.237,342.533 349.604,342.788 350.972,343.043C348.743,343.809 349.013,344.311 346.77,343.965C346.803,343.402 346.836,342.84 346.869,342.277Z" style="fill:rgb(122,118,157);"/>
        <path d="M847.476,240.691C847.741,240.455 847.262,237.786 851.557,240.209C849.692,241.42 849.683,240.977 847.476,240.691Z" style="fill:rgb(138,131,165);"/>
        <path d="M611.473,771.951C610.801,770.835 610.198,770.899 610.971,769.852C616.488,762.378 611.574,771.811 611.473,771.951Z" style="fill:rgb(227,226,230);fill-opacity:0.71;"/>
        <path d="M673.93,679.046C675.097,681.011 674.356,680.961 673.487,682.527C672.056,680.573 673.072,680.525 673.93,679.046Z" style="fill:rgb(173,172,187);"/>
        <path d="M734.521,310.2C736.054,311.95 735.688,313.079 733.399,312.716C733.182,312.682 732.009,312.241 734.521,310.2Z" style="fill:rgb(210,211,215);fill-opacity:0.95;"/>
        <path d="M378.29,711.784C377.786,710.627 377.244,710.704 377.909,709.728C378.966,708.177 381.531,712.582 378.29,711.784Z" style="fill:rgb(183,183,191);fill-opacity:0.99;"/>
        <path d="M300.837,376.308L301.464,377.388L300.465,378.363C300.299,378.338 297.63,377.944 300.837,376.308Z" style="fill:rgb(155,151,181);"/>
        <path d="M572.419,793.731C573.611,794.816 573.625,795.143 572.261,796.041C572.138,796.122 570.783,797.015 571.393,794.412L572.419,793.731Z" style="fill:rgb(230,228,231);fill-opacity:0.63;"/>
        <path d="M818.222,461.594C818.872,461.498 819.521,461.402 820.171,461.307C819.155,463.169 819.533,463.277 817.788,464.355C817.933,463.434 818.077,462.514 818.222,461.594Z" style="fill:rgb(127,121,166);"/>
        <path d="M367.453,656.687C366.32,655.562 366.376,655.677 366.32,655.562C365.537,653.925 368.607,655.388 367.453,656.687Z" style="fill:rgb(105,98,152);"/>
        <path d="M551.697,670.285C551.947,671.154 552.196,672.024 552.446,672.893L551.902,673.701C550.863,672.049 551.068,672.102 551.697,670.285Z" style="fill:rgb(202,198,207);fill-opacity:0.98;"/>
        <path d="M708.12,685.125C709.495,684.717 709.905,684.13 710.03,685.519C710.083,686.098 706.933,689.108 708.12,685.125Z" style="fill:rgb(222,221,221);fill-opacity:0.92;"/>
        <path d="M701.126,678.128C703.78,677.402 703.957,677.614 704.11,677.799C707.123,681.423 701.337,678.243 701.126,678.128Z" style="fill:rgb(229,228,231);fill-opacity:0.59;"/>
        <path d="M344.566,676.474C344.901,675.08 344.508,674.455 345.495,674.811C350.053,676.458 344.718,676.473 344.566,676.474Z" style="fill:rgb(221,219,220);fill-opacity:0.92;"/>
        <path d="M448.277,769.775L450.518,771.468L449.606,772.542C448.655,771.283 448.459,771.499 448.277,769.775Z" style="fill:rgb(123,115,168);"/>
        <path d="M372.523,382.243C372.645,380.564 371.956,379.359 373.557,380.127C373.727,380.208 375.886,381.243 372.523,382.243Z" style="fill:rgb(99,96,153);"/>
        <path d="M576.409,789.308C576.473,789.453 578.56,794.193 575.778,791.188C574.978,790.324 575.687,790.333 576.409,789.308Z" style="fill:rgb(230,229,233);fill-opacity:0.74;"/>
        <path d="M347.482,533.579C347.238,534.198 346.993,534.817 346.749,535.436C346.594,533.409 344.463,532.406 346.519,532.427C347.485,532.437 346.537,533.569 347.482,533.579Z" style="fill:rgb(113,109,158);"/>
        <path d="M784.735,708.605C785.566,710.236 785.405,710.272 785.505,710.391C783.537,711.094 784.248,709.845 784.735,708.605Z" style="fill:rgb(217,216,224);fill-opacity:0.94;"/>
        <path d="M516.487,793.016C517.406,791.754 517.867,791.012 518.478,792.497C519.093,793.991 518.081,793.195 516.487,793.016Z" style="fill:rgb(231,229,229);fill-opacity:0.74;"/>
        <path d="M497.436,780.743C497.155,781.326 496.873,781.908 496.591,782.491C495.851,780.975 495.936,779.892 497.436,780.743Z" style="fill:rgb(206,203,213);fill-opacity:0.95;"/>
        <path d="M277.572,354.573C278.483,356.484 278.447,356.431 278.499,356.481L277.476,356.917C276.974,355.649 276.421,355.525 277.572,354.573Z" style="fill:rgb(130,123,165);"/>
        <path d="M450.518,771.468C450.81,771.852 451.102,772.236 451.394,772.621C450.759,772.913 450.124,773.206 449.489,773.499L449.606,772.542L450.518,771.468Z" style="fill:rgb(138,133,175);"/>
        <path d="M822.611,439.939C821.946,440.145 821.28,440.351 820.614,440.557C820.836,438.978 821.342,439.026 822.611,439.939Z" style="fill:rgb(120,118,164);"/>
        <path d="M808.052,457.812L809.42,458.401L808.453,459.244L807.995,459.144C808.014,458.7 808.033,458.256 808.052,457.812Z" style="fill:rgb(136,134,174);"/>
        <path d="M280.206,497.405L280.986,498.463C279.837,498.49 279.286,499.499 279.57,498.496C279.756,497.837 280.014,498.084 280.206,497.405Z" style="fill:rgb(101,95,150);"/>
        <path d="M1008.182,655.646C1008.29,656.263 1008.397,656.879 1008.505,657.496C1007.599,656.522 1006.86,656.237 1008.182,655.646Z" style="fill:rgb(254,254,254);fill-opacity:0.33;"/>
        <path d="M543.676,806.286C544.824,806.395 544.57,806.584 544.689,807.647L543.676,806.286Z" style="fill:rgb(223,221,228);fill-opacity:0.82;"/>
        <path d="M792.561,397.221C793.122,397.291 793.684,397.36 794.245,397.43C793.463,398.295 793.442,397.882 792.561,397.221Z" style="fill:rgb(190,189,202);"/>
        <path d="M784.359,595.39C784.456,595.255 785.561,593.704 785.561,593.704C787.276,593.523 785.334,594.023 784.359,595.39Z" style="fill:rgb(100,94,151);"/>
        <path d="M722.977,368.453C724.329,367.853 724.742,366.026 724.789,367.65C724.789,367.65 723.297,369.09 723.167,369.215L722.977,368.453Z" style="fill:rgb(142,138,177);"/>
        <path d="M604.492,562.228C604.642,562.202 606.371,561.895 606.371,561.895C607.008,563.166 605.868,561.984 604.492,562.228Z" style="fill:rgb(252,252,252);fill-opacity:0.46;"/>
        <path d="M560.902,844.745L561.625,846.128C560.637,845.689 560.799,845.673 560.902,844.745Z" style="fill:rgb(136,131,166);"/>
        <path d="M314.161,552.985L313.027,554.217C313.335,553.133 313.318,553.349 314.161,552.985Z" style="fill:rgb(148,141,180);"/>
        <path d="M552.446,672.893L553.486,673.542C553.025,673.751 552.563,673.961 552.101,674.17L551.902,673.701L552.446,672.893Z" style="fill:rgb(232,228,233);fill-opacity:0.32;"/>
        <path d="M277.476,356.917L278.499,356.481L276.67,357.978L277.476,356.917Z" style="fill:rgb(116,109,158);"/>
    </g>
</svg>
